<?xml version="1.0" encoding="iso-8859-1"?>
<!-- Uploaded to: SVG Repo, www.svgrepo.com, Generator: SVG Repo Mixer Tools -->
<!DOCTYPE svg PUBLIC "-//W3C//DTD SVG 1.1//EN" "http://www.w3.org/Graphics/SVG/1.1/DTD/svg11.dtd">
<svg fill="#000000" height="800px" width="800px" version="1.1" id="Capa_1" xmlns="http://www.w3.org/2000/svg" xmlns:xlink="http://www.w3.org/1999/xlink" 
	 viewBox="0 0 275.247 275.247" xml:space="preserve">
<path d="M242.859,1.341c0.077-0.265,0.061-0.483-0.058-0.677c-3.079-5.006-51.264,19.015-100.182,47.511
	c-2.643,1.54-4.217,4.451-4.504,7.707c-1.053,11.951-0.879,30.203-1.943,30.271c-0.779,0.05-5.399-15.074-7.322-21.824
	c-0.614-2.159-2.898-4.039-5.479-1.877c-8.841,7.407-16.105,14.274-20.718,18.409c-2.081,1.866-2.772,4.167-2.701,5.693
	c0.777,16.446,0.377,44.167-1.134,44.264c-1.093,0.069-6.311-13.182-10.842-27.449c-0.476-1.499-2.738-3.971-5.699,0.017
	c-40.872,55.063-39.589,86.375-20.504,109.17l-26.987,39.18c-4.699,6.822-2.978,16.163,3.845,20.862
	c2.599,1.79,5.562,2.647,8.495,2.647c4.769,0,9.458-2.269,12.367-6.492l26.258-38.122c27.377,9.295,59.755,5.194,95.957-47.697
	c18.061-26.387,24.494-36.845,42.215-76.728c0.867-1.949,0.222-4.378-3.366-5.004c-13.798-2.404-26.724-3.956-26.899-5.021
	c-0.226-1.379,12.091-3.439,29.958-9.802c1.082-0.386,4.705-1.646,5.533-6.128C236.202,42.115,244.681,6.553,242.859,1.341z"/>
</svg>