<?xml version="1.0" encoding="UTF-8"?>
<!DOCTYPE svg PUBLIC "-//W3C//DTD SVG 1.1//EN" "http://www.w3.org/Graphics/SVG/1.1/DTD/svg11.dtd">
<svg xmlns="http://www.w3.org/2000/svg" version="1.1" width="500px" height="500px" style="shape-rendering:geometricPrecision; text-rendering:geometricPrecision; image-rendering:optimizeQuality; fill-rule:evenodd; clip-rule:evenodd" xmlns:xlink="http://www.w3.org/1999/xlink">
<g><path style="opacity:1" fill="#fcf7f7" d="M -0.5,-0.5 C 166.167,-0.5 332.833,-0.5 499.5,-0.5C 499.5,166.167 499.5,332.833 499.5,499.5C 332.833,499.5 166.167,499.5 -0.5,499.5C -0.5,332.833 -0.5,166.167 -0.5,-0.5 Z"/></g>
<g><path style="opacity:1" fill="#f7f0ee" d="M 50.5,128.5 C 53.1999,130.046 55.0332,132.379 56,135.5C 56.3173,133.699 56.984,133.366 58,134.5C 58.5,135.5 59,136.5 59.5,137.5C 58.7997,137.787 58.1331,138.12 57.5,138.5C 55.9505,137.559 54.2838,136.893 52.5,136.5C 49.6767,134.177 47.01,131.677 44.5,129C 46.4727,128.505 48.4727,128.338 50.5,128.5 Z"/></g>
<g><path style="opacity:1" fill="#d0b4a4" d="M 61.5,140.5 C 59.847,140.34 58.5137,139.674 57.5,138.5C 58.1331,138.12 58.7997,137.787 59.5,137.5C 59,136.5 58.5,135.5 58,134.5C 56.984,133.366 56.3173,133.699 56,135.5C 55.0332,132.379 53.1999,130.046 50.5,128.5C 51.8221,128.33 52.9887,128.663 54,129.5C 55.0812,127.233 56.5812,127.066 58.5,129C 57.8333,129.333 57.1667,129.667 56.5,130C 59.6031,132.806 61.2697,136.306 61.5,140.5 Z"/></g>
<g><path style="opacity:1" fill="#fbf5f5" d="M 86.5,187.5 C 87.1667,187.5 87.8333,187.5 88.5,187.5C 88.6107,188.117 88.944,188.617 89.5,189C 92.6965,189.805 95.6965,189.638 98.5,188.5C 99.8221,188.33 100.989,188.663 102,189.5C 103.194,193.204 103.527,196.87 103,200.5C 103.667,199.167 104.333,199.167 105,200.5C 105.153,197.1 104.653,193.767 103.5,190.5C 107.482,190.86 111.649,191.526 116,192.5C 116.333,192.167 116.667,191.833 117,191.5C 118.526,193.585 120.36,193.585 122.5,191.5C 121.478,190.646 120.645,189.646 120,188.5C 119.311,189.357 118.478,190.023 117.5,190.5C 113.655,189.572 109.655,189.072 105.5,189C 106.931,188.535 108.097,187.701 109,186.5C 109.855,183.885 111.188,181.552 113,179.5C 113.333,180.167 113.667,180.833 114,181.5C 116.953,180.249 119.953,180.249 123,181.5C 126.312,179.879 126.312,179.545 123,180.5C 121.488,179.743 120.154,178.743 119,177.5C 116.232,180.088 114.232,179.755 113,176.5C 110.655,178.514 108.655,180.847 107,183.5C 108.05,180.321 108.717,176.987 109,173.5C 108.581,172.328 107.915,171.328 107,170.5C 106.667,172.167 106.333,173.833 106,175.5C 105.641,172.456 104.974,172.122 104,174.5C 103.667,172.5 103.333,170.5 103,168.5C 102.667,169.833 102.333,171.167 102,172.5C 101.469,168.991 100.469,165.658 99,162.5C 98.6667,163.5 98.3333,164.5 98,165.5C 97.9691,161.196 96.9691,157.196 95,153.5C 94.9464,157.523 95.4464,161.523 96.5,165.5C 95.9361,167.819 95.4361,170.153 95,172.5C 94.04,169.367 93.2067,166.2 92.5,163C 93.4518,158.846 93.4518,155.013 92.5,151.5C 92.439,145.516 94.2723,140.183 98,135.5C 100.575,133.808 103.408,132.808 106.5,132.5C 132.505,136.382 158.505,140.215 184.5,144C 177.99,150.843 174.156,159.01 173,168.5C 171.155,180.107 169.821,191.774 169,203.5C 168.645,219.847 167.979,236.18 167,252.5C 166.638,257.136 165.138,261.303 162.5,265C 156.93,268.658 151.764,268.158 147,263.5C 146.568,262.4 147.068,261.733 148.5,261.5C 155.873,264.556 159.039,262.223 158,254.5C 157.5,252.667 156.333,251.5 154.5,251C 131.228,247.143 107.895,243.977 84.5,241.5C 84.3291,223.464 84.9958,205.464 86.5,187.5 Z"/></g>
<g><path style="opacity:1" fill="#d8c0b2" d="M 50.5,128.5 C 48.4727,128.338 46.4727,128.505 44.5,129C 47.01,131.677 49.6767,134.177 52.5,136.5C 51.4264,137.885 50.0931,139.051 48.5,140C 51.6229,140.206 54.6229,140.873 57.5,142C 53.495,142.598 49.8283,143.098 46.5,143.5C 43.7209,142.383 43.3876,141.217 45.5,140C 42.4557,139.641 42.1224,138.974 44.5,138C 42.208,136.71 40.208,135.043 38.5,133C 39.549,132.508 40.549,132.674 41.5,133.5C 42.354,132.478 43.354,131.645 44.5,131C 43.8921,130.13 43.0588,129.63 42,129.5C 40.2108,130.409 38.3774,130.576 36.5,130C 41.1778,127.825 45.8445,127.325 50.5,128.5 Z"/></g>
<g><path style="opacity:1" fill="#bf9983" d="M 52.5,136.5 C 54.2838,136.893 55.9505,137.559 57.5,138.5C 58.5137,139.674 59.847,140.34 61.5,140.5C 62.4363,141.974 63.7697,142.974 65.5,143.5C 67.4632,144.82 69.4632,146.154 71.5,147.5C 72.463,148.363 72.463,149.03 71.5,149.5C 69.0621,147.196 66.2287,145.53 63,144.5C 58.5981,144.59 54.0981,144.757 49.5,145C 50.6956,145.654 50.6956,146.154 49.5,146.5C 48.1451,145.812 47.1451,144.812 46.5,143.5C 49.8283,143.098 53.495,142.598 57.5,142C 54.6229,140.873 51.6229,140.206 48.5,140C 50.0931,139.051 51.4264,137.885 52.5,136.5 Z"/></g>
<g><path style="opacity:1" fill="#d3b8aa" d="M 69.5,132.5 C 68.7611,132.369 68.0944,132.536 67.5,133C 69.8477,135.354 70.5144,138.021 69.5,141C 70.3972,143.087 71.0639,145.254 71.5,147.5C 69.4632,146.154 67.4632,144.82 65.5,143.5C 65.3909,138.837 63.7243,134.837 60.5,131.5C 61.7582,132.016 62.7582,131.35 63.5,129.5C 65.444,130.801 67.444,131.801 69.5,132.5 Z"/></g>
<g><path style="opacity:1" fill="#d1b5a5" d="M 90.5,148.5 C 90.5,149.5 90.5,150.5 90.5,151.5C 89.7784,151.082 89.2784,150.416 89,149.5C 88.6667,150.167 88.3333,150.833 88,151.5C 87.5272,149.221 86.5272,147.221 85,145.5C 84.8771,148.614 84.7104,151.614 84.5,154.5C 82.4081,150.668 82.0748,146.668 83.5,142.5C 86.0912,144.281 88.4245,146.281 90.5,148.5 Z"/></g>
<g><path style="opacity:1" fill="#cfb2a2" d="M 69.5,132.5 C 71.8283,134.3 74.495,135.467 77.5,136C 78.5,137 79.5,138 80.5,139C 78.945,143.332 77.945,147.832 77.5,152.5C 77.8076,153.308 78.3076,153.975 79,154.5C 79.3333,152.5 79.6667,150.5 80,148.5C 80.6139,152.947 82.1139,157.28 84.5,161.5C 80.471,158.102 75.8044,156.602 70.5,157C 72.437,157.122 73.7703,157.955 74.5,159.5C 69.7847,159.494 65.118,158.994 60.5,158C 51.8319,154.487 51.8319,152.153 60.5,151C 58.913,150.138 57.2464,149.471 55.5,149C 60.7036,148.813 65.7036,149.813 70.5,152C 67.971,153.062 65.3043,153.895 62.5,154.5C 67.467,155.662 72.467,155.829 77.5,155C 76.5,154 75.5,153 74.5,152C 75.1667,151.667 75.8333,151.333 76.5,151C 75.1969,147.532 75.1969,144.032 76.5,140.5C 74.2994,138.384 71.9661,135.718 69.5,132.5 Z"/></g>
<g><path style="opacity:1" fill="#a06a49" d="M 248.5,155.5 C 247.508,155.328 246.842,155.662 246.5,156.5C 240.833,155.167 235.167,155.167 229.5,156.5C 226.833,155.167 224.167,155.167 221.5,156.5C 220.527,156.013 219.527,155.513 218.5,155C 228.675,154.175 238.675,154.342 248.5,155.5 Z"/></g>
<g><path style="opacity:1" fill="#803a0f" d="M 229.5,156.5 C 228.778,156.918 228.278,157.584 228,158.5C 227.333,180.5 227.333,202.5 228,224.5C 228.708,225.381 229.542,226.047 230.5,226.5C 227.167,227.833 223.833,227.833 220.5,226.5C 221.458,226.047 222.292,225.381 223,224.5C 223.667,202.5 223.667,180.5 223,158.5C 222.283,157.956 221.783,157.289 221.5,156.5C 224.167,155.167 226.833,155.167 229.5,156.5 Z"/></g>
<g><path style="opacity:1" fill="#fbf6f5" d="M 246.5,156.5 C 252.61,158.877 255.276,163.377 254.5,170C 254.507,173.258 254.007,176.425 253,179.5C 252.252,181.751 250.752,183.084 248.5,183.5C 245.531,184.825 242.531,184.825 239.5,183.5C 238.261,183.942 237.261,184.609 236.5,185.5C 234.561,186.014 233.561,187.347 233.5,189.5C 233.453,191.038 234.12,192.038 235.5,192.5C 236.312,193.993 237.645,194.66 239.5,194.5C 242.216,194.039 244.882,193.373 247.5,192.5C 249.782,193.223 252.116,193.557 254.5,193.5C 262.812,202.434 263.645,212.1 257,222.5C 254.843,224.495 252.343,225.828 249.5,226.5C 243.167,226.5 236.833,226.5 230.5,226.5C 229.542,226.047 228.708,225.381 228,224.5C 227.333,202.5 227.333,180.5 228,158.5C 228.278,157.584 228.778,156.918 229.5,156.5C 235.167,155.167 240.833,155.167 246.5,156.5 Z"/></g>
<g><path style="opacity:1" fill="#f9f2f0" d="M 84.5,161.5 C 85.5,163.167 86.8333,164.5 88.5,165.5C 86.6054,165.913 84.6054,166.247 82.5,166.5C 82.1667,166.333 81.8333,166.167 81.5,166C 82.3279,165.085 83.3279,164.419 84.5,164C 81.3394,162.007 78.0061,160.507 74.5,159.5C 73.7703,157.955 72.437,157.122 70.5,157C 75.8044,156.602 80.471,158.102 84.5,161.5 Z"/></g>
<g><path style="opacity:1" fill="#89461e" d="M 246.5,156.5 C 246.842,155.662 247.508,155.328 248.5,155.5C 259.781,160.224 262.614,168.224 257,179.5C 254.872,181.808 252.372,183.474 249.5,184.5C 248.833,184.5 248.5,184.167 248.5,183.5C 250.752,183.084 252.252,181.751 253,179.5C 254.007,176.425 254.507,173.258 254.5,170C 255.276,163.377 252.61,158.877 246.5,156.5 Z"/></g>
<g><path style="opacity:1" fill="#d8bfb2" d="M 115.5,153.5 C 118.643,154.436 119.476,156.103 118,158.5C 116.413,157.273 115.079,157.606 114,159.5C 113.558,157.321 112.558,156.655 111,157.5C 108.519,156.851 108.186,155.851 110,154.5C 112.235,155.98 114.068,155.647 115.5,153.5 Z"/></g>
<g><path style="opacity:1" fill="#d6bcae" d="M 126.5,155.5 C 128.164,156.999 130.164,157.999 132.5,158.5C 133.833,159.5 133.833,160.5 132.5,161.5C 132.167,160.833 131.833,160.167 131.5,159.5C 128.907,159.673 126.24,159.673 123.5,159.5C 122.167,158.5 122.167,157.5 123.5,156.5C 124.922,157.777 125.922,157.443 126.5,155.5 Z"/></g>
<g><path style="opacity:1" fill="#d3b9ac" d="M 138.5,158.5 C 142.509,159.387 146.343,159.387 150,158.5C 150.442,160.679 151.442,161.345 153,160.5C 155,161.5 155,162.5 153,163.5C 151.542,162.253 150.042,162.253 148.5,163.5C 144.573,159.864 141.073,159.864 138,163.5C 137.616,161.803 137.782,160.137 138.5,158.5 Z"/></g>
<g><path style="opacity:1" fill="#b4876d" d="M 88.5,165.5 C 86.8333,164.5 85.5,163.167 84.5,161.5C 86.045,160.77 86.8784,159.437 87,157.5C 87.3951,160.207 87.8951,162.873 88.5,165.5 Z"/></g>
<g><path style="opacity:1" fill="#b58c73" d="M 391.5,175.5 C 390.833,172.833 390.167,170.167 389.5,167.5C 390.09,166.234 390.59,164.901 391,163.5C 391.499,167.486 391.666,171.486 391.5,175.5 Z"/></g>
<g><path style="opacity:1" fill="#975a36" d="M 389.5,167.5 C 390.167,170.167 390.833,172.833 391.5,175.5C 407.5,175.833 407.5,176.167 391.5,176.5C 391.333,192.503 391.5,208.503 392,224.5C 394.971,228.092 398.304,228.425 402,225.5C 402.167,225.833 402.333,226.167 402.5,226.5C 396.272,230.12 391.439,228.787 388,222.5C 387.5,207.17 387.333,191.837 387.5,176.5C 385.473,176.662 383.473,176.495 381.5,176C 385.748,174.587 388.415,171.754 389.5,167.5 Z"/></g>
<g><path style="opacity:1" fill="#b18469" d="M 303.5,175.5 C 303.5,175.833 303.5,176.167 303.5,176.5C 298.867,175.463 294.2,175.296 289.5,176C 294.232,174.267 298.899,174.1 303.5,175.5 Z"/></g>
<g><path style="opacity:1" fill="#854118" d="M 329.5,174.5 C 331.5,174.5 333.5,174.5 335.5,174.5C 335.333,185.172 335.5,195.839 336,206.5C 337.067,207.191 338.234,207.691 339.5,208C 336.196,209.042 334.029,207.875 333,204.5C 332.667,195.5 332.333,186.5 332,177.5C 330.933,176.809 329.766,176.309 328.5,176C 329.056,175.617 329.389,175.117 329.5,174.5 Z"/></g>
<g><path style="opacity:1" fill="#b3876d" d="M 361.5,176.5 C 356.5,175.167 351.5,175.167 346.5,176.5C 348.634,174.967 351.134,174.3 354,174.5C 356.866,174.3 359.366,174.967 361.5,176.5 Z"/></g>
<g><path style="opacity:1" fill="#833f15" d="M 423.5,226.5 C 418.787,224.279 415.62,220.612 414,215.5C 413.667,202.833 413.333,190.167 413,177.5C 411.933,176.809 410.766,176.309 409.5,176C 411.594,174.648 413.927,174.148 416.5,174.5C 416.333,188.837 416.5,203.171 417,217.5C 418.611,220.938 420.777,223.938 423.5,226.5 Z"/></g>
<g><path style="opacity:1" fill="#843f15" d="M 452.5,174.5 C 452.823,181.022 452.49,187.355 451.5,193.5C 450.674,188.684 450.174,183.684 450,178.5C 445.75,175.724 446.583,174.391 452.5,174.5 Z"/></g>
<g><path style="opacity:1" fill="#a06c4b" d="M 452.5,174.5 C 453.818,181.011 453.818,187.678 452.5,194.5C 451.893,194.376 451.56,194.043 451.5,193.5C 452.49,187.355 452.823,181.022 452.5,174.5 Z"/></g>
<g><path style="opacity:1" fill="#cfb1a0" d="M 92.5,151.5 C 93.4518,155.013 93.4518,158.846 92.5,163C 93.2067,166.2 94.04,169.367 95,172.5C 95.4361,170.153 95.9361,167.819 96.5,165.5C 95.4464,161.523 94.9464,157.523 95,153.5C 96.9691,157.196 97.9691,161.196 98,165.5C 98.3333,164.5 98.6667,163.5 99,162.5C 100.469,165.658 101.469,168.991 102,172.5C 102.333,171.167 102.667,169.833 103,168.5C 103.333,170.5 103.667,172.5 104,174.5C 104.974,172.122 105.641,172.456 106,175.5C 106.333,173.833 106.667,172.167 107,170.5C 107.915,171.328 108.581,172.328 109,173.5C 108.717,176.987 108.05,180.321 107,183.5C 108.655,180.847 110.655,178.514 113,176.5C 114.232,179.755 116.232,180.088 119,177.5C 120.154,178.743 121.488,179.743 123,180.5C 126.312,179.545 126.312,179.879 123,181.5C 119.953,180.249 116.953,180.249 114,181.5C 113.667,180.833 113.333,180.167 113,179.5C 111.188,181.552 109.855,183.885 109,186.5C 108.097,187.701 106.931,188.535 105.5,189C 109.655,189.072 113.655,189.572 117.5,190.5C 118.478,190.023 119.311,189.357 120,188.5C 120.645,189.646 121.478,190.646 122.5,191.5C 120.36,193.585 118.526,193.585 117,191.5C 116.667,191.833 116.333,192.167 116,192.5C 111.649,191.526 107.482,190.86 103.5,190.5C 103.752,187.63 102.752,185.297 100.5,183.5C 99.537,183.97 99.537,184.637 100.5,185.5C 99.7354,185.923 98.9021,186.257 98,186.5C 93.9166,185.081 89.7499,184.581 85.5,185C 86.8333,185.333 88.1667,185.667 89.5,186C 88.944,186.383 88.6107,186.883 88.5,187.5C 87.8333,187.5 87.1667,187.5 86.5,187.5C 86.1583,186.662 85.4916,186.328 84.5,186.5C 82.2649,185.484 82.2649,184.151 84.5,182.5C 84.0814,181.328 83.4147,180.328 82.5,179.5C 83.5,178.667 84.5,177.833 85.5,177C 83.1218,176.489 80.7885,175.822 78.5,175C 80.116,173.923 81.9493,173.423 84,173.5C 93.0518,175.346 93.5518,174.346 85.5,170.5C 81.6331,171.135 77.7998,171.801 74,172.5C 70.5,170.333 67.6667,167.5 65.5,164C 66,163.5 66.5,163 67,162.5C 69.2431,164.282 71.7431,164.782 74.5,164C 73.1667,163.667 71.8333,163.333 70.5,163C 79.8333,162.333 79.8333,161.667 70.5,161C 72.0581,160.79 73.3915,160.29 74.5,159.5C 78.0061,160.507 81.3394,162.007 84.5,164C 83.3279,164.419 82.3279,165.085 81.5,166C 81.8333,166.167 82.1667,166.333 82.5,166.5C 84.6054,166.247 86.6054,165.913 88.5,165.5C 90.1084,166.538 91.1084,165.871 91.5,163.5C 91.1543,162.304 90.6543,162.304 90,163.5C 89.4213,159.797 89.588,156.131 90.5,152.5C 91.1667,152.167 91.8333,151.833 92.5,151.5 Z"/></g>
<g><path style="opacity:1" fill="#935732" d="M 91.5,169.5 C 93.0847,170.002 93.5847,171.002 93,172.5C 91.9614,171.756 91.4614,170.756 91.5,169.5 Z"/></g>
<g><path style="opacity:1" fill="#fcf7f7" d="M 69.5,167.5 C 74.3783,166.31 79.3783,166.477 84.5,168C 80.6571,169.417 76.8237,169.917 73,169.5C 71.8873,168.695 70.7206,168.028 69.5,167.5 Z"/></g>
<g><path style="opacity:1" fill="#a36f50" d="M 94.5,174.5 C 96.0931,175.348 97.2597,176.681 98,178.5C 98.6877,179.332 98.521,179.998 97.5,180.5C 96.2311,178.82 94.5644,177.653 92.5,177C 93.3805,176.292 94.0472,175.458 94.5,174.5 Z"/></g>
<g><path style="opacity:1" fill="#833e14" d="M 303.5,176.5 C 303.5,176.167 303.5,175.833 303.5,175.5C 309.419,176.917 313.252,180.584 315,186.5C 315.333,199.5 315.667,212.5 316,225.5C 318.105,227.015 317.939,227.515 315.5,227C 314.117,225.729 313.117,224.229 312.5,222.5C 312.768,220.901 312.434,219.568 311.5,218.5C 312.619,208.213 312.785,197.88 312,187.5C 310.584,182.636 307.751,178.97 303.5,176.5 Z"/></g>
<g><path style="opacity:1" fill="#be9881" d="M 346.5,176.5 C 344.833,178.833 342.833,180.833 340.5,182.5C 341.5,179.5 343.5,177.5 346.5,176.5 Z"/></g>
<g><path style="opacity:1" fill="#d4baab" d="M 131.5,180.5 C 134.293,181.538 136.793,181.538 139,180.5C 141.718,181.347 144.384,182.347 147,183.5C 149.529,181.752 152.029,182.252 154.5,185C 150.047,184.802 145.547,184.302 141,183.5C 138.767,184.973 136.767,184.64 135,182.5C 134,182.833 133,183.167 132,183.5C 131.517,182.552 131.351,181.552 131.5,180.5 Z"/></g>
<g><path style="opacity:1" fill="#8b4a22" d="M 361.5,176.5 C 367.062,178.581 370.562,182.581 372,188.5C 372.333,200.833 372.667,213.167 373,225.5C 373.383,226.056 373.883,226.389 374.5,226.5C 372.167,227.833 369.833,227.833 367.5,226.5C 368.222,226.082 368.722,225.416 369,224.5C 369.667,211.833 369.667,199.167 369,186.5C 367.053,182.724 364.553,179.39 361.5,176.5 Z"/></g>
<g><path style="opacity:1" fill="#b08266" d="M 248.5,183.5 C 248.5,184.167 248.833,184.5 249.5,184.5C 245.366,185.485 241.032,185.818 236.5,185.5C 237.261,184.609 238.261,183.942 239.5,183.5C 242.531,184.825 245.531,184.825 248.5,183.5 Z"/></g>
<g><path style="opacity:1" fill="#ae7f63" d="M 284.5,179.5 C 285.043,179.56 285.376,179.893 285.5,180.5C 284.103,182.982 283.269,185.648 283,188.5C 282.207,185.259 282.707,182.259 284.5,179.5 Z"/></g>
<g><path style="opacity:1" fill="#dbc4b8" d="M 100.5,185.5 C 100.218,186.778 99.5511,187.778 98.5,188.5C 95.6965,189.638 92.6965,189.805 89.5,189C 88.944,188.617 88.6107,188.117 88.5,187.5C 88.6107,186.883 88.944,186.383 89.5,186C 88.1667,185.667 86.8333,185.333 85.5,185C 89.7499,184.581 93.9166,185.081 98,186.5C 98.9021,186.257 99.7354,185.923 100.5,185.5 Z"/></g>
<g><path style="opacity:1" fill="#b99078" d="M 340.5,182.5 C 339.167,187.5 339.167,192.5 340.5,197.5C 338.967,195.366 338.3,192.866 338.5,190C 338.3,187.134 338.967,184.634 340.5,182.5 Z"/></g>
<g><path style="opacity:1" fill="#c19c87" d="M 236.5,185.5 C 234.568,187.663 234.235,189.997 235.5,192.5C 234.12,192.038 233.453,191.038 233.5,189.5C 233.561,187.347 234.561,186.014 236.5,185.5 Z"/></g>
<g><path style="opacity:1" fill="#bd957e" d="M 254.5,193.5 C 252.116,193.557 249.782,193.223 247.5,192.5C 244.882,193.373 242.216,194.039 239.5,194.5C 237.645,194.66 236.312,193.993 235.5,192.5C 236.817,192.821 238.151,193.154 239.5,193.5C 242.41,192.419 245.41,191.752 248.5,191.5C 250.883,191.361 252.883,192.028 254.5,193.5 Z"/></g>
<g><path style="opacity:1" fill="#b78c73" d="M 289.5,194.5 C 288.244,194.539 287.244,194.039 286.5,193C 287.998,192.415 288.998,192.915 289.5,194.5 Z"/></g>
<g><path style="opacity:1" fill="#864219" d="M 254.5,193.5 C 266.634,199.407 269.468,208.407 263,220.5C 259.66,225.087 255.16,227.42 249.5,227.5C 249.5,227.167 249.5,226.833 249.5,226.5C 252.343,225.828 254.843,224.495 257,222.5C 263.645,212.1 262.812,202.434 254.5,193.5 Z"/></g>
<g><path style="opacity:1" fill="#bb937b" d="M 289.5,194.5 C 295.318,195.028 300.984,195.695 306.5,196.5C 302.5,196.5 298.5,196.5 294.5,196.5C 292.447,196.598 290.78,195.931 289.5,194.5 Z"/></g>
<g><path style="opacity:1" fill="#e2ccc1" d="M 294.5,197.5 C 294.5,197.167 294.5,196.833 294.5,196.5C 298.5,196.5 302.5,196.5 306.5,196.5C 307.87,198.707 307.203,200.374 304.5,201.5C 301.806,200.246 299.139,199.246 296.5,198.5C 296.158,197.662 295.492,197.328 294.5,197.5 Z"/></g>
<g><path style="opacity:1" fill="#8a4921" d="M 448.5,196.5 C 448.5,196.167 448.5,195.833 448.5,195.5C 450.371,195.859 451.871,196.859 453,198.5C 453.333,207.5 453.667,216.5 454,225.5C 454.5,226 455,226.5 455.5,227C 453.613,227.163 452.113,226.329 451,224.5C 450.667,215.5 450.333,206.5 450,197.5C 449.617,196.944 449.117,196.611 448.5,196.5 Z"/></g>
<g><path style="opacity:1" fill="#be9881" d="M 448.5,195.5 C 448.5,195.833 448.5,196.167 448.5,196.5C 446.61,196.297 445.11,196.963 444,198.5C 443.695,200.557 443.695,202.557 444,204.5C 441.281,199.822 442.448,196.488 447.5,194.5C 448.107,194.624 448.44,194.957 448.5,195.5 Z"/></g>
<g><path style="opacity:1" fill="#bc947d" d="M 340.5,197.5 C 343.005,199.186 343.838,201.519 343,204.5C 342.153,202.146 341.32,199.812 340.5,197.5 Z"/></g>
<g><path style="opacity:1" fill="#ac7a5c" d="M 103.5,190.5 C 104.653,193.767 105.153,197.1 105,200.5C 104.333,199.167 103.667,199.167 103,200.5C 103.527,196.87 103.194,193.204 102,189.5C 100.989,188.663 99.8221,188.33 98.5,188.5C 99.5511,187.778 100.218,186.778 100.5,185.5C 99.537,184.637 99.537,183.97 100.5,183.5C 102.752,185.297 103.752,187.63 103.5,190.5 Z"/></g>
<g><path style="opacity:1" fill="#8d4d26" d="M 294.5,197.5 C 295.492,197.328 296.158,197.662 296.5,198.5C 284.334,198.497 278.501,204.497 279,216.5C 280.748,222.416 284.581,226.083 290.5,227.5C 290.5,227.833 290.5,228.167 290.5,228.5C 276.584,225.589 272.418,217.589 278,204.5C 282.623,200.105 288.123,197.772 294.5,197.5 Z"/></g>
<g><path style="opacity:1" fill="#813c10" d="M 337.5,226.5 C 335.167,227.833 332.833,227.833 330.5,226.5C 331.117,226.389 331.617,226.056 332,225.5C 332.333,219.833 332.667,214.167 333,208.5C 333.414,208.957 333.914,209.291 334.5,209.5C 335.329,214.802 335.829,220.136 336,225.5C 336.383,226.056 336.883,226.389 337.5,226.5 Z"/></g>
<g><path style="opacity:1" fill="#ae7f62" d="M 446.5,217.5 C 446.405,213.775 446.238,210.109 446,206.5C 447.7,210.229 447.867,213.895 446.5,217.5 Z"/></g>
<g><path style="opacity:1" fill="#caaa98" d="M 311.5,218.5 C 312.434,219.568 312.768,220.901 312.5,222.5C 311.782,220.754 310.782,220.088 309.5,220.5C 309.855,219.478 310.522,218.811 311.5,218.5 Z"/></g>
<g><path style="opacity:1" fill="#ba9179" d="M 446.5,217.5 C 446.445,220.614 445.112,222.948 442.5,224.5C 443.584,221.996 444.917,219.663 446.5,217.5 Z"/></g>
<g><path style="opacity:1" fill="#b99179" d="M 442.5,224.5 C 441.998,226.085 440.998,226.585 439.5,226C 440.244,224.961 441.244,224.461 442.5,224.5 Z"/></g>
<g><path style="opacity:1" fill="#c9a997" d="M 220.5,226.5 C 223.833,227.833 227.167,227.833 230.5,226.5C 236.833,226.5 243.167,226.5 249.5,226.5C 249.5,226.833 249.5,227.167 249.5,227.5C 239.326,228.823 228.993,228.823 218.5,227.5C 218.957,226.702 219.624,226.369 220.5,226.5 Z"/></g>
<g><path style="opacity:1" fill="#c9aa97" d="M 330.5,226.5 C 332.833,227.833 335.167,227.833 337.5,226.5C 338.376,226.369 339.043,226.702 339.5,227.5C 335.833,228.833 332.167,228.833 328.5,227.5C 328.957,226.702 329.624,226.369 330.5,226.5 Z"/></g>
<g><path style="opacity:1" fill="#c5a38f" d="M 367.5,226.5 C 369.833,227.833 372.167,227.833 374.5,226.5C 375.043,226.56 375.376,226.893 375.5,227.5C 372.167,228.833 368.833,228.833 365.5,227.5C 365.957,226.702 366.624,226.369 367.5,226.5 Z"/></g>
<g><path style="opacity:1" fill="#c4a18c" d="M 290.5,228.5 C 290.5,228.167 290.5,227.833 290.5,227.5C 293.85,227.665 297.183,227.498 300.5,227C 302.402,225.699 304.402,225.032 306.5,225C 301.558,228.741 296.225,229.907 290.5,228.5 Z"/></g>
<g><path style="opacity:1" fill="#c6a390" d="M 423.5,226.5 C 428.136,227.149 432.802,227.649 437.5,228C 432.407,230.341 427.74,229.841 423.5,226.5 Z"/></g>
<g><path style="opacity:1" fill="#87451c" d="M 252.5,242.5 C 255.448,242.223 258.281,242.556 261,243.5C 261.749,244.635 261.583,245.635 260.5,246.5C 255.826,243.166 253.159,244.333 252.5,250C 252.354,252.034 253.02,253.701 254.5,255C 257.19,255.132 259.523,254.465 261.5,253C 262.061,254.566 261.394,255.899 259.5,257C 250.906,258.058 247.739,254.225 250,245.5C 251.045,244.627 251.878,243.627 252.5,242.5 Z"/></g>
<g><path style="opacity:1" fill="#7f3a0d" d="M 267.5,242.5 C 267.5,246.833 267.5,251.167 267.5,255.5C 269.833,255.5 272.167,255.5 274.5,255.5C 272.012,257.388 269.012,258.055 265.5,257.5C 264.892,252.056 265.558,247.056 267.5,242.5 Z"/></g>
<g><path style="opacity:1" fill="#be9781" d="M 267.5,242.5 C 265.558,247.056 264.892,252.056 265.5,257.5C 269.012,258.055 272.012,257.388 274.5,255.5C 272.167,255.5 269.833,255.5 267.5,255.5C 267.5,251.167 267.5,246.833 267.5,242.5 Z"/></g>
<g><path style="opacity:1" fill="#8b4921" d="M 280.5,242.5 C 282.167,242.5 283.833,242.5 285.5,242.5C 286.84,247.517 288.173,252.517 289.5,257.5C 288.5,257.5 287.5,257.5 286.5,257.5C 286.5,256.5 286.5,255.5 286.5,254.5C 282.927,254.041 279.927,255.041 277.5,257.5C 277.167,256.833 276.833,256.167 276.5,255.5C 277.84,251.149 279.173,246.816 280.5,242.5 Z"/></g>
<g><path style="opacity:1" fill="#833f14" d="M 300.5,250.5 C 300.56,251.043 300.893,251.376 301.5,251.5C 302.484,248.572 302.817,245.572 302.5,242.5C 304.442,247.056 305.108,252.056 304.5,257.5C 303.178,257.67 302.011,257.337 301,256.5C 299.672,253.688 298.172,251.022 296.5,248.5C 296.44,247.957 296.107,247.624 295.5,247.5C 294.513,250.768 294.18,254.102 294.5,257.5C 292.558,252.944 291.892,247.944 292.5,242.5C 293.978,242.238 295.311,242.571 296.5,243.5C 297.861,245.85 299.194,248.184 300.5,250.5 Z"/></g>
<g><path style="opacity:1" fill="#c4a18c" d="M 302.5,242.5 C 302.817,245.572 302.484,248.572 301.5,251.5C 300.893,251.376 300.56,251.043 300.5,250.5C 301.167,247.833 301.833,245.167 302.5,242.5 Z"/></g>
<g><path style="opacity:1" fill="#833e14" d="M 321.5,251.5 C 319.833,251.5 318.167,251.5 316.5,251.5C 316.5,253.5 316.5,255.5 316.5,257.5C 314.558,252.944 313.892,247.944 314.5,242.5C 318.007,241.994 321.174,242.66 324,244.5C 325.016,247.626 324.183,249.959 321.5,251.5 Z"/></g>
<g><path style="opacity:1" fill="#89471f" d="M 327.5,242.5 C 330.518,242.335 333.518,242.502 336.5,243C 339.1,245.459 339.1,247.959 336.5,250.5C 337.601,252.642 338.601,254.808 339.5,257C 338.5,257.667 337.5,257.667 336.5,257C 335.74,255.559 335.074,254.059 334.5,252.5C 333.311,251.571 331.978,251.238 330.5,251.5C 330.5,253.5 330.5,255.5 330.5,257.5C 329.5,257.5 328.5,257.5 327.5,257.5C 327.5,252.5 327.5,247.5 327.5,242.5 Z"/></g>
<g><path style="opacity:1" fill="#88461d" d="M 345.5,242.5 C 347.144,242.286 348.644,242.62 350,243.5C 351.401,247.871 352.901,252.204 354.5,256.5C 354,256.833 353.5,257.167 353,257.5C 351.76,255.355 349.926,254.022 347.5,253.5C 344.488,253.179 343.155,254.512 343.5,257.5C 342.5,257.5 341.5,257.5 340.5,257.5C 341.883,252.402 343.55,247.402 345.5,242.5 Z"/></g>
<g><path style="opacity:1" fill="#7f3a0d" d="M 357.5,242.5 C 358.809,244.571 359.475,247.071 359.5,250C 359.167,252.5 358.833,255 358.5,257.5C 357.506,252.544 357.173,247.544 357.5,242.5 Z"/></g>
<g><path style="opacity:1" fill="#8c4b24" d="M 364.5,242.5 C 367.722,242.108 370.722,242.608 373.5,244C 372.975,244.692 372.308,245.192 371.5,245.5C 369.929,244.691 368.262,244.357 366.5,244.5C 366.351,245.552 366.517,246.552 367,247.5C 370.708,247.764 373.208,249.597 374.5,253C 374.223,254.892 373.223,256.225 371.5,257C 368.032,258.081 365.032,257.415 362.5,255C 362.833,254.667 363.167,254.333 363.5,254C 373.773,254.848 374.106,253.348 364.5,249.5C 363.286,247.141 363.286,244.808 364.5,242.5 Z"/></g>
<g><path style="opacity:1" fill="#813b10" d="M 380.5,248.5 C 383.082,248.025 385.082,248.692 386.5,250.5C 384.167,250.5 381.833,250.5 379.5,250.5C 379.5,252.167 379.5,253.833 379.5,255.5C 382.388,254.99 384.721,255.656 386.5,257.5C 383.5,257.5 380.5,257.5 377.5,257.5C 377.5,252.5 377.5,247.5 377.5,242.5C 380.572,242.183 383.572,242.516 386.5,243.5C 384.257,244.474 381.924,244.808 379.5,244.5C 379.232,246.099 379.566,247.432 380.5,248.5 Z"/></g>
<g><path style="opacity:1" fill="#8c4b24" d="M 390.5,242.5 C 393.722,242.108 396.722,242.608 399.5,244C 398.975,244.692 398.308,245.192 397.5,245.5C 395.929,244.691 394.262,244.357 392.5,244.5C 392.351,245.552 392.517,246.552 393,247.5C 396.708,247.764 399.208,249.597 400.5,253C 400.223,254.892 399.223,256.225 397.5,257C 394.032,258.081 391.032,257.415 388.5,255C 388.833,254.667 389.167,254.333 389.5,254C 399.773,254.848 400.106,253.348 390.5,249.5C 389.286,247.141 389.286,244.808 390.5,242.5 Z"/></g>
<g><path style="opacity:1" fill="#cdae9d" d="M 380.5,248.5 C 379.566,247.432 379.232,246.099 379.5,244.5C 381.924,244.808 384.257,244.474 386.5,243.5C 383.572,242.516 380.572,242.183 377.5,242.5C 377.5,247.5 377.5,252.5 377.5,257.5C 376.512,252.36 376.179,247.026 376.5,241.5C 380.167,241.5 383.833,241.5 387.5,241.5C 387.5,242.833 387.5,244.167 387.5,245.5C 385.167,245.5 382.833,245.5 380.5,245.5C 380.5,246.5 380.5,247.5 380.5,248.5 Z"/></g>
<g><path style="opacity:1" fill="#efe1dc" d="M 316.5,244.5 C 318.167,244.5 319.833,244.5 321.5,244.5C 321.5,246.167 321.5,247.833 321.5,249.5C 319.833,249.5 318.167,249.5 316.5,249.5C 316.5,247.833 316.5,246.167 316.5,244.5 Z"/></g>
<g><path style="opacity:1" fill="#f3e8e4" d="M 330.5,244.5 C 333.95,243.756 335.616,245.09 335.5,248.5C 333.833,248.5 332.167,248.5 330.5,248.5C 330.5,247.167 330.5,245.833 330.5,244.5 Z"/></g>
<g><path style="opacity:1" fill="#efe2dd" d="M 282.5,245.5 C 284.074,247.102 284.741,249.102 284.5,251.5C 283.127,251.657 281.793,251.49 280.5,251C 281.464,249.275 282.131,247.441 282.5,245.5 Z"/></g>
<g><path style="opacity:1" fill="#ad7f63" d="M 296.5,248.5 C 295.833,251.5 295.167,254.5 294.5,257.5C 294.18,254.102 294.513,250.768 295.5,247.5C 296.107,247.624 296.44,247.957 296.5,248.5 Z"/></g>
<g><path style="opacity:1" fill="#eddfda" d="M 346.5,246.5 C 350.546,249.464 350.213,251.131 345.5,251.5C 345.629,249.784 345.962,248.117 346.5,246.5 Z"/></g>
<g><path style="opacity:1" fill="#c4a18c" d="M 321.5,251.5 C 320.432,252.434 319.099,252.768 317.5,252.5C 317.784,254.415 317.451,256.081 316.5,257.5C 316.5,255.5 316.5,253.5 316.5,251.5C 318.167,251.5 319.833,251.5 321.5,251.5 Z"/></g>
<g><path style="opacity:1" fill="#bc947d" d="M 386.5,250.5 C 384.735,251.461 382.735,251.795 380.5,251.5C 380.5,252.5 380.5,253.5 380.5,254.5C 382.833,254.5 385.167,254.5 387.5,254.5C 387.737,255.791 387.404,256.791 386.5,257.5C 384.721,255.656 382.388,254.99 379.5,255.5C 379.5,253.833 379.5,252.167 379.5,250.5C 381.833,250.5 384.167,250.5 386.5,250.5 Z"/></g>
<g><path style="opacity:1" fill="#8c4b24" d="M 84.5,186.5 C 85.4916,186.328 86.1583,186.662 86.5,187.5C 84.9958,205.464 84.3291,223.464 84.5,241.5C 107.895,243.977 131.228,247.143 154.5,251C 156.333,251.5 157.5,252.667 158,254.5C 159.039,262.223 155.873,264.556 148.5,261.5C 147.068,261.733 146.568,262.4 147,263.5C 151.764,268.158 156.93,268.658 162.5,265C 165.138,261.303 166.638,257.136 167,252.5C 167.979,236.18 168.645,219.847 169,203.5C 169.821,191.774 171.155,180.107 173,168.5C 174.156,159.01 177.99,150.843 184.5,144C 158.505,140.215 132.505,136.382 106.5,132.5C 103.408,132.808 100.575,133.808 98,135.5C 94.2723,140.183 92.439,145.516 92.5,151.5C 91.8333,151.833 91.1667,152.167 90.5,152.5C 90.5,152.167 90.5,151.833 90.5,151.5C 90.5,150.5 90.5,149.5 90.5,148.5C 91.3535,139.429 96.0202,133.429 104.5,130.5C 134.493,135.047 164.493,139.547 194.5,144C 200.645,147.213 202.145,152.046 199,158.5C 197.833,159.667 196.667,160.833 195.5,162C 189.109,162.356 182.776,161.856 176.5,160.5C 173.688,175.018 171.855,189.685 171,204.5C 170.129,222.18 169.129,239.847 168,257.5C 165.819,267.029 159.986,270.862 150.5,269C 122.126,265.28 93.7929,261.28 65.5,257C 59.8912,253.723 58.0578,248.89 60,242.5C 61.6195,240.274 63.7862,238.94 66.5,238.5C 71.8348,239.227 77.1681,239.894 82.5,240.5C 82.4091,222.468 83.0758,204.468 84.5,186.5 Z"/></g>
<g><path style="opacity:1" fill="#f4eae7" d="M 149.5,252.5 C 155,251.831 157.167,254.165 156,259.5C 152.551,260.61 149.051,260.61 145.5,259.5C 145.571,256.348 146.905,254.014 149.5,252.5 Z"/></g>
<g><path style="opacity:1" fill="#faf3f2" d="M 64.5,240.5 C 92.2659,243.538 119.933,247.371 147.5,252C 142.576,256.303 142.242,260.97 146.5,266C 120.485,263.269 94.4849,259.936 68.5,256C 59.8356,252.483 58.5023,247.316 64.5,240.5 Z"/></g>
<g><path style="opacity:1" fill="#d4baab" d="M 127.5,189.5 C 128.268,190.263 128.768,191.263 129,192.5C 130,191.167 131,191.167 132,192.5C 132.419,191.328 133.085,190.328 134,189.5C 134.617,190.449 134.451,191.282 133.5,192C 134.449,192.617 135.282,192.451 136,191.5C 136.308,192.308 136.808,192.975 137.5,193.5C 141.738,188.121 142.404,188.621 139.5,195C 136.854,194.791 134.354,194.958 132,195.5C 130.33,193.302 128.33,192.968 126,194.5C 125.878,192.718 126.378,191.052 127.5,189.5 Z"/></g>
<g><path style="opacity:1" fill="#f3e7e4" d="M 180.5,151.5 C 182.989,151.298 185.323,151.798 187.5,153C 186.577,155.041 186.244,157.208 186.5,159.5C 183.478,159.196 180.478,158.696 177.5,158C 178.406,155.779 179.406,153.612 180.5,151.5 Z"/></g>
<g><path style="opacity:1" fill="#f5ece9" d="M 186.5,144.5 C 197.423,144.19 200.757,149.024 196.5,159C 191.08,161.883 188.58,160.383 189,154.5C 189.465,153.069 190.299,151.903 191.5,151C 188.118,150.824 184.785,150.324 181.5,149.5C 183.006,147.599 184.673,145.932 186.5,144.5 Z"/></g>
</svg>
