<?xml version="1.0" encoding="UTF-8"?>
<!DOCTYPE svg PUBLIC "-//W3C//DTD SVG 1.1//EN" "http://www.w3.org/Graphics/SVG/1.1/DTD/svg11.dtd">
<svg xmlns="http://www.w3.org/2000/svg" version="1.1" width="500px" height="500px" style="shape-rendering:geometricPrecision; text-rendering:geometricPrecision; image-rendering:optimizeQuality; fill-rule:evenodd; clip-rule:evenodd" xmlns:xlink="http://www.w3.org/1999/xlink">
<g><path style={{opacity:1}} fill="#fefefe" d="M -0.5,-0.5 C 166.167,-0.5 332.833,-0.5 499.5,-0.5C 499.5,166.167 499.5,332.833 499.5,499.5C 332.833,499.5 166.167,499.5 -0.5,499.5C -0.5,332.833 -0.5,166.167 -0.5,-0.5 Z"/></g>
<g><path style={{opacity:1}} fill="#9b623f" d="M 65.5,64.5 C 66.4293,65.3149 67.4293,66.1482 68.5,67C 68.1667,67.1667 67.8333,67.3333 67.5,67.5C 63.6476,65.2758 59.6476,63.7758 55.5,63C 58.4468,65.4356 60.7801,68.2689 62.5,71.5C 58.6678,67.8362 54.6678,64.3362 50.5,61C 43.664,58.4163 36.664,57.7496 29.5,59C 34.7175,57.4372 40.0509,57.1038 45.5,58C 52.2178,59.3095 58.8844,61.4762 65.5,64.5 Z"/></g>
<g><path style={{opacity:1}} fill="#9b613f" d="M 98.5,106.5 C 97.7784,106.918 97.2784,107.584 97,108.5C 96.6012,108.272 96.4346,107.938 96.5,107.5C 95.5101,90.022 88.5101,75.522 75.5,64C 72.0709,61.894 68.4043,60.894 64.5,61C 66.3115,62.0407 66.6448,63.2073 65.5,64.5C 64.2524,62.3509 62.7524,60.3509 61,58.5C 60.3123,57.6683 60.479,57.0016 61.5,56.5C 76.7259,60.8767 87.2259,70.5433 93,85.5C 95.2623,92.4293 97.0956,99.4293 98.5,106.5 Z"/></g>
<g><path style={{opacity:1}} fill="#92542f" d="M 31.5,62.5 C 31.5,63.1667 31.1667,63.5 30.5,63.5C 22.4823,64.1167 14.4823,64.6167 6.5,65C 12.5883,63.4491 18.755,62.2824 25,61.5C 27.2159,61.6527 29.3825,61.9861 31.5,62.5 Z"/></g>
<g><path style={{opacity:1}} fill="#ac7b5d" d="M 31.5,62.5 C 34.5396,63.6803 37.2063,65.347 39.5,67.5C 38.4168,67.4606 37.4168,67.1272 36.5,66.5C 35.537,66.9698 35.537,67.6365 36.5,68.5C 34.4068,67.9553 32.4068,67.122 30.5,66C 29.4019,65.2303 29.4019,64.397 30.5,63.5C 31.1667,63.5 31.5,63.1667 31.5,62.5 Z"/></g>
<g><path style={{opacity:1}} fill="#a26e4d" d="M 94.5,68.5 C 93.2438,68.5386 92.2438,68.0386 91.5,67C 92.9976,66.4153 93.9976,66.9153 94.5,68.5 Z"/></g>
<g><path style={{opacity:1}} fill="#a77658" d="M 39.5,67.5 C 40.7562,67.4614 41.7562,67.9614 42.5,69C 41.0024,69.5847 40.0024,69.0847 39.5,67.5 Z"/></g>
<g><path style={{opacity:1}} fill="#985e3a" d="M 91.5,69.5 C 90.1667,69.5 89.5,70.1667 89.5,71.5C 87.6098,69.4099 85.9431,67.0765 84.5,64.5C 86.1875,63.432 87.8541,63.5986 89.5,65C 88.6919,65.3076 88.0253,65.8076 87.5,66.5C 88.6243,67.8592 89.9577,68.8592 91.5,69.5 Z"/></g>
<g><path style={{opacity:1}} fill="#844016" d="M 149.5,231.5 C 151.5,231.5 153.5,231.5 155.5,231.5C 155.833,232.167 156.167,232.833 156.5,233.5C 155.223,234.694 154.556,236.36 154.5,238.5C 150.801,290.441 148.467,342.441 147.5,394.5C 216.539,403.67 285.539,413.17 354.5,423C 368.699,429.903 372.199,440.403 365,454.5C 363.611,456.227 361.944,457.561 360,458.5C 350.772,457.545 341.606,456.212 332.5,454.5C 332.167,454.833 331.833,455.167 331.5,455.5C 338.282,470.058 349.615,475.891 365.5,473C 374.699,470.47 381.532,464.97 386,456.5C 389.328,450.183 391.661,443.516 393,436.5C 395.454,381.823 398.12,327.156 401,272.5C 403.366,230.934 409.366,189.934 419,149.5C 422.752,133.821 430.252,120.321 441.5,109C 443.5,108 445.5,107 447.5,106C 368.503,94.7862 289.503,83.6195 210.5,72.5C 198.119,73.0616 188.952,78.7283 183,89.5C 177.782,99.488 173.948,109.988 171.5,121C 172.205,123.542 173.539,125.708 175.5,127.5C 174.504,127.586 173.671,127.252 173,126.5C 173.522,128.88 173.355,131.213 172.5,133.5C 171.599,132.71 170.932,131.71 170.5,130.5C 169.652,129.375 168.652,129.375 167.5,130.5C 165.098,125.808 163.431,120.808 162.5,115.5C 163.479,116.765 164.479,118.099 165.5,119.5C 169.361,106.069 174.861,93.4023 182,81.5C 190.393,70.1462 201.56,65.6462 215.5,68C 300.862,79.8137 386.196,91.8137 471.5,104C 488.569,109.753 495.736,121.587 493,139.5C 488.196,156.625 477.029,163.458 459.5,160C 448.736,157.98 437.903,156.48 427,155.5C 425.564,155.559 424.231,155.892 423,156.5C 415.549,189.45 410.549,222.783 408,256.5C 404.297,316.819 400.964,377.152 398,437.5C 395.936,452.474 389.102,464.64 377.5,474C 369.448,478.846 360.781,480.513 351.5,479C 265.389,467.318 179.389,454.984 93.5,442C 78.5457,434.932 71.7124,423.099 73,406.5C 76.7507,394.077 85.084,387.744 98,387.5C 112.519,389.077 127.019,390.744 141.5,392.5C 143.265,338.791 145.932,285.125 149.5,231.5 Z"/></g>
<g><path style={{opacity:1}} fill="#985e3b" d="M 14.5,73.5 C 11.7261,72.2774 9.0594,70.7774 6.5,69C 9.82143,69.1646 12.4881,70.6646 14.5,73.5 Z"/></g>
<g><path style={{opacity:1}} fill="#a26d4c" d="M 33.5,72.5 C 27.2257,69.4323 20.559,67.9323 13.5,68C 17.5,67.3333 21.5,67.3333 25.5,68C 28.6844,68.7542 31.3511,70.2542 33.5,72.5 Z"/></g>
<g><path style={{opacity:1}} fill="#a57454" d="M 36.5,68.5 C 40.1002,70.4302 43.1002,73.0969 45.5,76.5C 41.8998,74.5698 38.8998,71.9031 36.5,68.5 Z"/></g>
<g><path style={{opacity:1}} fill="#a47050" d="M 25.5,78.5 C 21.4976,77.0114 18.1642,74.5114 15.5,71C 16.1667,70.3333 16.8333,70.3333 17.5,71C 20.0625,73.733 22.7291,76.233 25.5,78.5 Z"/></g>
<g><path style={{opacity:1}} fill="#aa7859" d="M 73.5,73.5 C 71.5541,72.7456 70.7207,71.4122 71,69.5C 72.4813,70.4709 73.3146,71.8042 73.5,73.5 Z"/></g>
<g><path style={{opacity:1}} fill="#9d6542" d="M 91.5,69.5 C 94.1667,70.1667 95.8333,71.8333 96.5,74.5C 94.5,73.1667 92.8333,71.5 91.5,69.5 Z"/></g>
<g><path style={{opacity:1}} fill="#9d6644" d="M 71.5,75.5 C 69.0365,73.5389 66.7032,71.3722 64.5,69C 67.8649,69.8579 70.1982,72.0246 71.5,75.5 Z"/></g>
<g><path style={{opacity:1}} fill="#9b6340" d="M 89.5,71.5 C 92.3427,74.1924 93.5094,77.5257 93,81.5C 91.9245,78.1056 90.7578,74.7722 89.5,71.5 Z"/></g>
<g><path style={{opacity:1}} fill="#90522c" d="M 94.5,68.5 C 97.941,68.3011 101.274,68.8011 104.5,70C 108.95,72.6193 112.95,75.7859 116.5,79.5C 116.5,80.1667 116.5,80.8333 116.5,81.5C 113,78.1691 109.334,75.0024 105.5,72C 102.911,70.6859 100.244,70.0192 97.5,70C 98.8228,70.8159 99.4894,71.9826 99.5,73.5C 97.5,72.1667 95.8333,70.5 94.5,68.5 Z"/></g>
<g><path style={{opacity:1}} fill="#fefdfd" d="M 156.5,233.5 C 159.991,235.794 163.658,237.961 167.5,240C 176.65,240.87 185.65,240.037 194.5,237.5C 196.577,237.692 198.577,238.192 200.5,239C 203.537,246.278 205.87,253.778 207.5,261.5C 207.722,265.056 206.389,267.723 203.5,269.5C 204.164,270.648 204.331,271.981 204,273.5C 205.707,271.963 207.207,270.296 208.5,268.5C 209.451,269.919 209.784,271.585 209.5,273.5C 212.114,273.723 213.781,272.556 214.5,270C 213.572,269.612 212.905,268.945 212.5,268C 210.167,260.333 207.833,252.667 205.5,245C 205.613,243.72 206.28,242.887 207.5,242.5C 208.59,243.391 208.59,244.391 207.5,245.5C 208.365,246.583 209.365,246.749 210.5,246C 209.919,244.428 209.919,242.595 210.5,240.5C 215.819,238.178 219.819,234.511 222.5,229.5C 224.176,228.817 224.843,227.483 224.5,225.5C 227.083,220.202 228.916,214.535 230,208.5C 230.811,207.04 231.645,206.707 232.5,207.5C 230.805,210.67 230.305,214.004 231,217.5C 232.141,211.577 233.975,205.91 236.5,200.5C 235.017,202.094 233.517,203.76 232,205.5C 231.107,204.289 230.274,204.289 229.5,205.5C 227.962,207.243 226.962,209.243 226.5,211.5C 220.819,218.511 214.819,225.177 208.5,231.5C 207.094,231.973 206.427,232.973 206.5,234.5C 205.207,235.842 204.374,237.509 204,239.5C 203.506,237.866 203.34,236.199 203.5,234.5C 205.218,232.777 206.551,230.777 207.5,228.5C 209.914,227.089 211.581,225.089 212.5,222.5C 213.922,222.25 214.922,221.417 215.5,220C 214.262,220.077 213.262,219.911 212.5,219.5C 213.63,218.378 214.297,217.044 214.5,215.5C 220.106,209.358 222.773,202.024 222.5,193.5C 222.737,192.209 222.404,191.209 221.5,190.5C 220.609,188.391 219.442,186.391 218,184.5C 216.9,186.553 216.4,190.22 216.5,195.5C 215.678,197.389 214.845,199.389 214,201.5C 213.768,200.263 213.268,199.263 212.5,198.5C 212.5,197.5 212.5,196.5 212.5,195.5C 212.672,194.508 212.338,193.842 211.5,193.5C 211.313,191.436 210.813,189.436 210,187.5C 207.565,184.066 205.565,180.4 204,176.5C 203.501,180.486 203.334,184.486 203.5,188.5C 202.17,192.005 201.337,195.672 201,199.5C 202.093,196.691 203.26,194.024 204.5,191.5C 203.391,201.155 201.058,210.489 197.5,219.5C 197.84,221.548 197.507,222.548 196.5,222.5C 196.607,217.79 196.774,213.123 197,208.5C 196.115,211.952 195.282,215.286 194.5,218.5C 192.825,215.493 192.159,212.16 192.5,208.5C 193.459,213.659 194.459,213.659 195.5,208.5C 196.693,204.089 198.193,199.756 200,195.5C 200.667,190.833 200.667,186.167 200,181.5C 199.33,178.826 198.163,176.493 196.5,174.5C 194.712,168.165 192.879,161.832 191,155.5C 192.486,163.608 191.153,171.275 187,178.5C 188.407,168.931 188.741,159.264 188,149.5C 186.129,140.746 181.962,133.413 175.5,127.5C 173.539,125.708 172.205,123.542 171.5,121C 173.948,109.988 177.782,99.488 183,89.5C 188.952,78.7283 198.119,73.0616 210.5,72.5C 289.503,83.6195 368.503,94.7862 447.5,106C 445.5,107 443.5,108 441.5,109C 430.252,120.321 422.752,133.821 419,149.5C 409.366,189.934 403.366,230.934 401,272.5C 398.12,327.156 395.454,381.823 393,436.5C 391.661,443.516 389.328,450.183 386,456.5C 381.532,464.97 374.699,470.47 365.5,473C 349.615,475.891 338.282,470.058 331.5,455.5C 331.833,455.167 332.167,454.833 332.5,454.5C 341.606,456.212 350.772,457.545 360,458.5C 361.944,457.561 363.611,456.227 365,454.5C 372.199,440.403 368.699,429.903 354.5,423C 285.539,413.17 216.539,403.67 147.5,394.5C 148.467,342.441 150.801,290.441 154.5,238.5C 154.556,236.36 155.223,234.694 156.5,233.5 Z"/></g>
<g><path style={{opacity:1}} fill="#975d39" d="M 62.5,71.5 C 65.0818,73.9968 66.5818,76.9968 67,80.5C 64.9617,77.7568 63.4617,74.7568 62.5,71.5 Z"/></g>
<g><path style={{opacity:1}} fill="#bf957d" d="M 73.5,73.5 C 75.6246,76.0878 76.9579,79.0878 77.5,82.5C 76.4415,81.3998 75.6082,80.0664 75,78.5C 74.5172,79.448 74.3505,80.448 74.5,81.5C 72.9925,79.8185 71.9925,77.8185 71.5,75.5C 72.5,75.1667 73.1667,74.5 73.5,73.5 Z"/></g>
<g><path style={{opacity:1}} fill="#a36e4d" d="M 99.5,73.5 C 101.262,74.2623 102.262,75.5956 102.5,77.5C 100.738,76.7377 99.7376,75.4044 99.5,73.5 Z"/></g>
<g><path style={{opacity:1}} fill="#b79077" d="M 33.5,75.5 C 33.1667,76.1667 32.8333,76.8333 32.5,77.5C 23.1447,73.3353 23.4781,72.6687 33.5,75.5 Z"/></g>
<g><path style={{opacity:1}} fill="#a77455" d="M 96.5,74.5 C 99.0507,76.5777 100.884,79.2444 102,82.5C 103.206,90.8826 104.206,99.216 105,107.5C 103.956,106.377 103.29,105.044 103,103.5C 102.513,97.1475 101.847,90.8141 101,84.5C 99.7455,80.996 98.2455,77.6626 96.5,74.5 Z"/></g>
<g><path style={{opacity:1}} fill="#a57151" d="M 102.5,77.5 C 106.123,82.5457 107.623,88.2123 107,94.5C 105.65,88.7646 104.15,83.0979 102.5,77.5 Z"/></g>
<g><path style={{opacity:1}} fill="#a16e4d" d="M 116.5,79.5 C 116.897,78.475 117.563,78.3083 118.5,79C 120.464,80.451 121.797,82.2843 122.5,84.5C 120.5,82.8333 118.5,81.1667 116.5,79.5 Z"/></g>
<g><path style={{opacity:1}} fill="#a16c4b" d="M 14.5,73.5 C 18.5698,76.0604 22.2365,79.2271 25.5,83C 28.3388,84.9203 31.3388,86.5869 34.5,88C 42.4143,89.8228 50.4143,91.1561 58.5,92C 60.9141,93.8849 63.5808,94.5516 66.5,94C 64.0684,92.9125 64.4017,92.4125 67.5,92.5C 69.6977,92.4088 70.0311,93.0755 68.5,94.5C 68.0618,94.4346 67.7284,94.6012 67.5,95C 69.5951,95.5556 69.7618,96.0556 68,96.5C 66.8615,96.0109 65.6948,95.6775 64.5,95.5C 53.3748,95.995 42.3748,95.1617 31.5,93C 29.4049,92.4444 29.2382,91.9444 31,91.5C 39.0815,93.3072 47.2482,93.8072 55.5,93C 38.4087,93.4524 24.7421,86.9524 14.5,73.5 Z"/></g>
<g><path style={{opacity:1}} fill="#b4896e" d="M 25.5,78.5 C 31.0484,79.9604 36.715,80.7937 42.5,81C 39.0283,82.5799 35.3616,82.9133 31.5,82C 28.9746,81.5762 26.9746,80.4095 25.5,78.5 Z"/></g>
<g><path style={{opacity:1}} fill="#9d6543" d="M 74.5,81.5 C 76.5375,85.2613 78.2042,89.2613 79.5,93.5C 76.688,90.0868 75.0213,86.0868 74.5,81.5 Z"/></g>
<g><path style={{opacity:1}} fill="#9a603d" d="M 116.5,81.5 C 122.024,88.0551 125.024,95.7218 125.5,104.5C 125.672,105.492 125.338,106.158 124.5,106.5C 123.425,97.6087 120.758,89.2754 116.5,81.5 Z"/></g>
<g><path style={{opacity:1}} fill="#a06b4a" d="M 77.5,82.5 C 79.5043,84.8381 80.671,87.5048 81,90.5C 79.0073,88.1825 77.8406,85.5158 77.5,82.5 Z"/></g>
<g><path style={{opacity:1}} fill="#945732" d="M 44.5,86.5 C 44.1583,87.3382 43.4916,87.6716 42.5,87.5C 40.3453,87.628 38.3453,87.128 36.5,86C 39.1572,85.8253 41.8239,85.9919 44.5,86.5 Z"/></g>
<g><path style={{opacity:1}} fill="#d0b6a5" d="M 44.5,86.5 C 47.7131,86.19 50.7131,86.5233 53.5,87.5C 51.2646,87.2053 49.2646,87.5386 47.5,88.5C 45.5853,88.7845 43.9187,88.4511 42.5,87.5C 43.4916,87.6716 44.1583,87.3382 44.5,86.5 Z"/></g>
<g><path style={{opacity:1}} fill="#925630" d="M 136.5,89.5 C 135.504,89.5858 134.671,89.2524 134,88.5C 133.517,89.448 133.351,90.448 133.5,91.5C 132.31,89.1307 130.643,87.1307 128.5,85.5C 127.426,84.1154 126.093,82.9487 124.5,82C 124.833,81.8333 125.167,81.6667 125.5,81.5C 129.411,83.9434 133.078,86.6101 136.5,89.5 Z"/></g>
<g><path style={{opacity:1}} fill="#f3ece8" d="M 128.5,85.5 C 130.643,87.1307 132.31,89.1307 133.5,91.5C 134.221,100.808 134.721,110.141 135,119.5C 135.391,113.137 136.058,106.803 137,100.5C 137.198,102.382 137.698,104.048 138.5,105.5C 137.986,111.822 137.653,118.155 137.5,124.5C 138.364,129.455 140.364,133.789 143.5,137.5C 142.89,138.391 142.557,139.391 142.5,140.5C 139.675,135.548 137.509,130.214 136,124.5C 135.333,125.833 135.333,127.167 136,128.5C 137.521,132.865 139.021,137.198 140.5,141.5C 139.108,139.727 137.941,137.727 137,135.5C 136.865,137.922 137.365,140.255 138.5,142.5C 134.693,140.225 132.359,136.892 131.5,132.5C 131.5,131.833 131.833,131.5 132.5,131.5C 132.897,132.525 133.563,132.692 134.5,132C 133.137,130.055 132.303,127.888 132,125.5C 131.501,120.845 131.334,116.179 131.5,111.5C 132.652,106.015 132.818,100.349 132,94.5C 131.392,92.9336 130.558,91.6002 129.5,90.5C 129.771,88.6203 129.104,87.287 127.5,86.5C 126.443,85.794 126.776,85.4607 128.5,85.5 Z"/></g>
<g><path style={{opacity:1}} fill="#ac7a5c" d="M 58.5,86.5 C 61.0983,87.5278 61.0983,88.5278 58.5,89.5C 54.8648,88.8857 51.1981,88.5524 47.5,88.5C 49.2646,87.5386 51.2646,87.2053 53.5,87.5C 55.4147,87.7845 57.0813,87.4511 58.5,86.5 Z"/></g>
<g><path style={{opacity:1}} fill="#9e6746" d="M 127.5,86.5 C 129.104,87.287 129.771,88.6203 129.5,90.5C 128.326,89.4863 127.66,88.153 127.5,86.5 Z"/></g>
<g><path style={{opacity:1}} fill="#fcfaf9" d="M 136.5,89.5 C 144.127,98.391 147.127,108.724 145.5,120.5C 145.59,126.121 146.757,131.455 149,136.5C 148.841,132.85 148.341,129.184 147.5,125.5C 147.52,124.274 147.853,123.274 148.5,122.5C 150.064,131.597 152.731,140.264 156.5,148.5C 156.666,152.846 156.499,157.179 156,161.5C 154,159.5 152,157.5 150,155.5C 148.071,151.964 145.904,148.631 143.5,145.5C 143.371,143.784 143.038,142.117 142.5,140.5C 142.557,139.391 142.89,138.391 143.5,137.5C 141.613,133.158 139.946,128.825 138.5,124.5C 138.9,118.171 139.233,111.838 139.5,105.5C 138.812,100.185 136.812,95.5185 133.5,91.5C 133.351,90.448 133.517,89.448 134,88.5C 134.671,89.2524 135.504,89.5858 136.5,89.5 Z"/></g>
<g><path style={{opacity:1}} fill="#9f6847" d="M 122.5,84.5 C 125.82,88.1443 127.82,92.4776 128.5,97.5C 128.768,99.099 128.434,100.432 127.5,101.5C 127.662,99.4727 127.495,97.4727 127,95.5C 125.487,91.812 123.987,88.1454 122.5,84.5 Z"/></g>
<g><path style={{opacity:1}} fill="#aa795b" d="M 102.5,109.5 C 100.672,106.865 99.5053,103.865 99,100.5C 98.9625,93.555 97.9625,86.8883 96,80.5C 97.9078,83.2154 99.2411,86.2154 100,89.5C 100.199,96.2675 101.032,102.934 102.5,109.5 Z"/></g>
<g><path style={{opacity:1}} fill="#aa795c" d="M 34.5,101.5 C 30.2694,100.485 29.1028,98.1516 31,94.5C 33.7612,95.7958 36.5945,96.9625 39.5,98C 46.5231,98.3969 53.5231,98.3969 60.5,98C 50.906,101.806 41.5727,101.306 32.5,96.5C 32.1667,96.8333 31.8333,97.1667 31.5,97.5C 32.5244,98.8518 33.5244,100.185 34.5,101.5 Z"/></g>
<g><path style={{opacity:1}} fill="#bf9880" d="M 68.5,94.5 C 74.2027,95.5203 79.2027,97.8536 83.5,101.5C 81.1442,101.143 78.6442,101.143 76,101.5C 71.9445,99.9258 67.7778,98.7591 63.5,98C 64.2524,97.3292 64.5858,96.4959 64.5,95.5C 65.6948,95.6775 66.8615,96.0109 68,96.5C 69.7618,96.0556 69.5951,95.5556 67.5,95C 67.7284,94.6012 68.0618,94.4346 68.5,94.5 Z"/></g>
<g><path style={{opacity:1}} fill="#985d3a" d="M 146.5,100.5 C 148.833,100.833 150.167,102.167 150.5,104.5C 148.833,103.5 147.5,102.167 146.5,100.5 Z"/></g>
<g><path style={{opacity:1}} fill="#bf9b85" d="M 128.5,97.5 C 129.809,101.351 129.809,105.351 128.5,109.5C 127.52,106.914 127.187,104.247 127.5,101.5C 128.434,100.432 128.768,99.099 128.5,97.5 Z"/></g>
<g><path style={{opacity:1}} fill="#ac7c5e" d="M 133.5,91.5 C 136.812,95.5185 138.812,100.185 139.5,105.5C 139.167,105.5 138.833,105.5 138.5,105.5C 137.698,104.048 137.198,102.382 137,100.5C 136.058,106.803 135.391,113.137 135,119.5C 134.721,110.141 134.221,100.808 133.5,91.5 Z"/></g>
<g><path style={{opacity:1}} fill="#faf7f6" d="M 144.5,100.5 C 145.167,100.5 145.833,100.5 146.5,100.5C 147.5,102.167 148.833,103.5 150.5,104.5C 150.738,106.404 151.738,107.738 153.5,108.5C 153.75,110.674 154.75,112.341 156.5,113.5C 156.66,115.153 157.326,116.486 158.5,117.5C 158.5,116.5 158.5,115.5 158.5,114.5C 159.222,114.918 159.722,115.584 160,116.5C 160.342,114.381 161.175,114.047 162.5,115.5C 163.431,120.808 165.098,125.808 167.5,130.5C 167.754,133.014 168.587,135.348 170,137.5C 170.499,142.155 170.666,146.821 170.5,151.5C 169.992,154.389 169.325,157.222 168.5,160C 168.833,160.167 169.167,160.333 169.5,160.5C 171.129,157.734 171.795,154.734 171.5,151.5C 172.012,144.83 171.345,138.33 169.5,132C 169.57,131.235 169.903,130.735 170.5,130.5C 170.932,131.71 171.599,132.71 172.5,133.5C 173.355,131.213 173.522,128.88 173,126.5C 173.671,127.252 174.504,127.586 175.5,127.5C 184.745,138.797 188.578,151.797 187,166.5C 184.008,176.289 182.508,186.289 182.5,196.5C 181.883,196.389 181.383,196.056 181,195.5C 180.498,192.487 179.998,189.487 179.5,186.5C 178.468,177.396 177.468,177.396 176.5,186.5C 174.605,179.226 174.105,171.893 175,164.5C 173.928,167.544 173.428,170.71 173.5,174C 173.804,177.549 173.971,181.049 174,184.5C 168.194,177.207 163.028,169.54 158.5,161.5C 159.569,158.592 159.736,155.592 159,152.5C 158.617,151.944 158.117,151.611 157.5,151.5C 157.5,150.5 157.5,149.5 157.5,148.5C 155.974,143.09 154.141,137.756 152,132.5C 150.468,124.871 149.301,118.538 148.5,113.5C 147.833,111.5 147.167,109.5 146.5,107.5C 146.233,105.035 145.566,102.701 144.5,100.5 Z"/></g>
<g><path style={{opacity:1}} fill="#a06847" d="M 90.5,106.5 C 91.5063,106.938 91.5063,107.604 90.5,108.5C 86.9543,107.041 83.2876,105.874 79.5,105C 68.1952,103.908 56.8619,103.241 45.5,103C 55.8333,102.333 66.1667,102.333 76.5,103C 81.2765,103.861 85.9431,105.027 90.5,106.5 Z"/></g>
<g><path style={{opacity:1}} fill="#9a623f" d="M 41.5,104.5 C 51.4607,105.424 61.4607,105.758 71.5,105.5C 66.8333,106.167 62.1667,106.833 57.5,107.5C 53.8183,107.665 50.1516,107.499 46.5,107C 44.3474,106.901 42.6808,106.067 41.5,104.5 Z"/></g>
<g><path style={{opacity:1}} fill="#b88e75" d="M 71.5,105.5 C 75.4144,105.98 79.0811,107.146 82.5,109C 74.3002,107.717 65.9668,107.217 57.5,107.5C 62.1667,106.833 66.8333,106.167 71.5,105.5 Z"/></g>
<g><path style={{opacity:1}} fill="#9d6644" d="M 150.5,104.5 C 152.262,105.262 153.262,106.596 153.5,108.5C 151.738,107.738 150.738,106.404 150.5,104.5 Z"/></g>
<g><path style={{opacity:1}} fill="#ac7c5e" d="M 129.5,90.5 C 130.558,91.6002 131.392,92.9336 132,94.5C 132.818,100.349 132.652,106.015 131.5,111.5C 131.5,110.833 131.167,110.5 130.5,110.5C 130.713,103.789 130.38,97.1228 129.5,90.5 Z"/></g>
<g><path style={{opacity:1}} fill="#fcfbfa" d="M 453.5,108.5 C 465.625,106.153 475.791,109.486 484,118.5C 487.378,125.097 488.378,132.097 487,139.5C 483.098,152.4 474.598,157.233 461.5,154C 455.056,149.223 453.889,143.39 458,136.5C 460.833,133.667 463.667,130.833 466.5,128C 456.504,126.196 446.504,124.363 436.5,122.5C 441.045,116.271 446.712,111.604 453.5,108.5 Z"/></g>
<g><path style={{opacity:1}} fill="#9e6745" d="M 153.5,108.5 C 155.25,109.659 156.25,111.326 156.5,113.5C 154.75,112.341 153.75,110.674 153.5,108.5 Z"/></g>
<g><path style={{opacity:1}} fill="#c8a996" d="M 125.5,104.5 C 126.434,105.568 126.768,106.901 126.5,108.5C 125.518,111.962 125.185,115.629 125.5,119.5C 124.515,115.366 124.182,111.032 124.5,106.5C 125.338,106.158 125.672,105.492 125.5,104.5 Z"/></g>
<g><path style={{opacity:1}} fill="#89471e" d="M 130.5,110.5 C 131.167,110.5 131.5,110.833 131.5,111.5C 131.334,116.179 131.501,120.845 132,125.5C 132.303,127.888 133.137,130.055 134.5,132C 133.563,132.692 132.897,132.525 132.5,131.5C 130.665,124.682 129.998,117.682 130.5,110.5 Z"/></g>
<g><path style={{opacity:1}} fill="#925630" d="M 136.5,89.5 C 140.352,92.1646 143.019,95.8313 144.5,100.5C 145.566,102.701 146.233,105.035 146.5,107.5C 146.818,112.032 146.485,116.366 145.5,120.5C 147.127,108.724 144.127,98.391 136.5,89.5 Z"/></g>
<g><path style={{opacity:1}} fill="#a26c4c" d="M 162.5,115.5 C 161.175,114.047 160.342,114.381 160,116.5C 159.722,115.584 159.222,114.918 158.5,114.5C 158.193,112.554 158.193,110.887 158.5,109.5C 160.833,110.832 162.166,112.832 162.5,115.5 Z"/></g>
<g><path style={{opacity:1}} fill="#9a623e" d="M 156.5,113.5 C 157.167,113.833 157.833,114.167 158.5,114.5C 158.5,115.5 158.5,116.5 158.5,117.5C 157.326,116.486 156.66,115.153 156.5,113.5 Z"/></g>
<g><path style={{opacity:1}} fill="#894820" d="M 138.5,105.5 C 138.833,105.5 139.167,105.5 139.5,105.5C 139.233,111.838 138.9,118.171 138.5,124.5C 138.167,124.5 137.833,124.5 137.5,124.5C 137.653,118.155 137.986,111.822 138.5,105.5 Z"/></g>
<g><path style={{opacity:1}} fill="#b18266" d="M 158.5,117.5 C 160.966,121.018 161.966,125.018 161.5,129.5C 161.5,130.167 161.167,130.5 160.5,130.5C 160.091,126.124 159.425,121.79 158.5,117.5 Z"/></g>
<g><path style={{opacity:1}} fill="#a36f4e" d="M 157.5,148.5 C 157.167,148.5 156.833,148.5 156.5,148.5C 152.731,140.264 150.064,131.597 148.5,122.5C 148.5,119.5 148.5,116.5 148.5,113.5C 149.301,118.538 150.468,124.871 152,132.5C 154.141,137.756 155.974,143.09 157.5,148.5 Z"/></g>
<g><path style={{opacity:1}} fill="#ab7a5c" d="M 137.5,124.5 C 137.833,124.5 138.167,124.5 138.5,124.5C 139.946,128.825 141.613,133.158 143.5,137.5C 140.364,133.789 138.364,129.455 137.5,124.5 Z"/></g>
<g><path style={{opacity:1}} fill="#fbf9f7" d="M 432.5,128.5 C 437.481,129.089 442.481,129.589 447.5,130C 450.119,130.151 452.453,130.985 454.5,132.5C 449.163,138.523 448.163,145.19 451.5,152.5C 442.775,151.938 434.109,150.938 425.5,149.5C 427.231,142.308 429.564,135.308 432.5,128.5 Z"/></g>
<g><path style={{opacity:1}} fill="#c29f89" d="M 146.5,107.5 C 147.167,109.5 147.833,111.5 148.5,113.5C 148.5,116.5 148.5,119.5 148.5,122.5C 147.853,123.274 147.52,124.274 147.5,125.5C 148.341,129.184 148.841,132.85 149,136.5C 146.757,131.455 145.59,126.121 145.5,120.5C 146.485,116.366 146.818,112.032 146.5,107.5 Z"/></g>
<g><path style={{opacity:1}} fill="#c09d87" d="M 219.5,132.5 C 219.5,131.167 218.833,130.5 217.5,130.5C 218.794,127.86 220.127,127.86 221.5,130.5C 221.145,131.522 220.478,132.189 219.5,132.5 Z"/></g>
<g><path style={{opacity:1}} fill="#a87455" d="M 170.5,130.5 C 169.903,130.735 169.57,131.235 169.5,132C 171.345,138.33 172.012,144.83 171.5,151.5C 171.167,151.5 170.833,151.5 170.5,151.5C 170.666,146.821 170.499,142.155 170,137.5C 168.587,135.348 167.754,133.014 167.5,130.5C 168.652,129.375 169.652,129.375 170.5,130.5 Z"/></g>
<g><path style={{opacity:1}} fill="#b58b71" d="M 217.5,130.5 C 216.833,131.833 215.833,132.833 214.5,133.5C 214.5,131.5 215.5,130.5 217.5,130.5 Z"/></g>
<g><path style={{opacity:1}} fill="#fcfaf9" d="M 217.5,130.5 C 218.833,130.5 219.5,131.167 219.5,132.5C 217.852,133.81 216.186,135.143 214.5,136.5C 213.913,135.767 213.913,134.767 214.5,133.5C 215.833,132.833 216.833,131.833 217.5,130.5 Z"/></g>
<g><path style={{opacity:1}} fill="#9c6441" d="M 72.5,135.5 C 75.5,134.833 78.5,134.167 81.5,133.5C 90.9405,131.871 100.274,132.204 109.5,134.5C 109.167,134.833 108.833,135.167 108.5,135.5C 104.102,134.239 99.6016,133.573 95,133.5C 87.531,134.551 80.031,135.217 72.5,135.5 Z"/></g>
<g><path style={{opacity:1}} fill="#d0b6a6" d="M 161.5,129.5 C 163.251,133.921 164.584,138.588 165.5,143.5C 164.833,143.5 164.5,143.833 164.5,144.5C 163.303,139.883 161.97,135.216 160.5,130.5C 161.167,130.5 161.5,130.167 161.5,129.5 Z"/></g>
<g><path style={{opacity:1}} fill="#b58b71" d="M 211.5,129.5 C 212.465,130.721 212.298,132.054 211,133.5C 210.421,132.072 210.588,130.738 211.5,129.5 Z"/></g>
<g><path style={{opacity:1}} fill="#bd967e" d="M 81.5,133.5 C 78.5,134.167 75.5,134.833 72.5,135.5C 73.8333,136.5 75.1667,137.5 76.5,138.5C 73.5739,137.539 70.5739,136.873 67.5,136.5C 66.2613,135.788 65.7613,134.788 66,133.5C 67.4411,134.26 68.9411,134.926 70.5,135.5C 79.7215,129.879 89.7215,128.046 100.5,130C 95.5,130.333 90.5,130.667 85.5,131C 83.0481,131.29 80.7148,131.956 78.5,133C 79.448,133.483 80.448,133.649 81.5,133.5 Z"/></g>
<g><path style={{opacity:1}} fill="#be9780" d="M 219.5,132.5 C 219.141,134.371 218.141,135.871 216.5,137C 218.855,138.865 219.022,141.031 217,143.5C 215.114,146.242 212.614,147.909 209.5,148.5C 209.351,147.448 209.517,146.448 210,145.5C 212.409,143.38 214.909,141.38 217.5,139.5C 215.082,138.203 212.749,137.87 210.5,138.5C 211.08,136.251 212.413,134.585 214.5,133.5C 213.913,134.767 213.913,135.767 214.5,136.5C 216.186,135.143 217.852,133.81 219.5,132.5 Z"/></g>
<g><path style={{opacity:1}} fill="#995f3c" d="M 240.5,135.5 C 241.713,136.497 241.546,137.497 240,138.5C 238.601,137.773 237.101,137.273 235.5,137C 237.382,136.802 239.048,136.302 240.5,135.5 Z"/></g>
<g><path style={{opacity:1}} fill="#9a613e" d="M 142.5,140.5 C 143.038,142.117 143.371,143.784 143.5,145.5C 142.5,144.167 141.5,142.833 140.5,141.5C 139.021,137.198 137.521,132.865 136,128.5C 135.333,127.167 135.333,125.833 136,124.5C 137.509,130.214 139.675,135.548 142.5,140.5 Z"/></g>
<g><path style={{opacity:1}} fill="#b78e74" d="M 210.5,138.5 C 207.937,145.284 207.104,144.951 208,137.5C 208.333,136.833 208.667,136.167 209,135.5C 209.232,136.737 209.732,137.737 210.5,138.5 Z"/></g>
<g><path style={{opacity:1}} fill="#b18469" d="M 76.5,138.5 C 79.5219,138.804 82.5219,139.304 85.5,140C 82.1834,140.781 79.1834,140.281 76.5,138.5 Z"/></g>
<g><path style={{opacity:1}} fill="#9e6645" d="M 140.5,141.5 C 140.158,142.338 139.492,142.672 138.5,142.5C 137.365,140.255 136.865,137.922 137,135.5C 137.941,137.727 139.108,139.727 140.5,141.5 Z"/></g>
<g><path style={{opacity:1}} fill="#a26e4d" d="M 179.5,138.5 C 185.045,145.507 186.878,153.507 185,162.5C 185.322,153.976 183.489,145.976 179.5,138.5 Z"/></g>
<g><path style={{opacity:1}} fill="#9b623f" d="M 175.5,127.5 C 181.962,133.413 186.129,140.746 188,149.5C 188.741,159.264 188.407,168.931 187,178.5C 191.153,171.275 192.486,163.608 191,155.5C 192.879,161.832 194.712,168.165 196.5,174.5C 195.603,173.402 194.77,173.402 194,174.5C 190.577,182.523 188.244,190.857 187,199.5C 186.333,196.833 186.333,194.167 187,191.5C 189.168,184.331 191.334,177.164 193.5,170C 193.333,169.167 193.167,168.333 193,167.5C 191.551,172.399 189.551,177.065 187,181.5C 186.667,180.833 186.333,180.167 186,179.5C 184.649,185.072 184.149,190.738 184.5,196.5C 183.833,196.5 183.167,196.5 182.5,196.5C 182.508,186.289 184.008,176.289 187,166.5C 188.578,151.797 184.745,138.797 175.5,127.5 Z"/></g>
<g><path style={{opacity:1}} fill="#a9795a" d="M 273.5,144.5 C 274.067,141.697 275.4,139.364 277.5,137.5C 278.084,140.649 276.75,142.982 273.5,144.5 Z"/></g>
<g><path style={{opacity:1}} fill="#a26c4c" d="M 72.5,140.5 C 76.5701,141.356 80.5701,142.523 84.5,144C 95.8577,145.025 107.191,146.192 118.5,147.5C 106.599,148.09 94.5993,147.256 82.5,145C 78.9391,143.768 75.6057,142.268 72.5,140.5 Z"/></g>
<g><path style={{opacity:1}} fill="#b58a6f" d="M 233.5,144.5 C 232.849,143.909 232.182,143.243 231.5,142.5C 230.167,143.833 228.833,145.167 227.5,146.5C 227.089,145.738 226.923,144.738 227,143.5C 225.286,144.925 223.953,144.592 223,142.5C 221.815,144.559 220.648,144.726 219.5,143C 219.759,141.739 220.426,140.739 221.5,140C 223.441,139.696 225.107,138.863 226.5,137.5C 226.833,137.667 227.167,137.833 227.5,138C 225.435,143.776 226.435,143.942 230.5,138.5C 231.383,140.058 232.383,142.058 233.5,144.5 Z"/></g>
<g><path style={{opacity:1}} fill="#8b4a22" d="M 103.5,142.5 C 104.492,142.328 105.158,142.662 105.5,143.5C 99.2684,144.061 93.2684,143.228 87.5,141C 92.7215,141.968 98.0549,142.468 103.5,142.5 Z"/></g>
<g><path style={{opacity:1}} fill="#b58a6f" d="M 103.5,142.5 C 105.265,141.539 107.265,141.205 109.5,141.5C 110.568,142.434 111.901,142.768 113.5,142.5C 111.052,143.473 108.385,143.806 105.5,143.5C 105.158,142.662 104.492,142.328 103.5,142.5 Z"/></g>
<g><path style={{opacity:1}} fill="#955934" d="M 34.5,101.5 C 37.1573,101.935 39.4907,102.935 41.5,104.5C 40.7611,104.369 40.0944,104.536 39.5,105C 44.8118,109.992 50.8118,113.992 57.5,117C 70.2569,120.818 83.2569,123.485 96.5,125C 101.529,126.229 106.196,128.229 110.5,131C 106.584,130.066 102.584,129.066 98.5,128C 93.8333,127.333 89.1667,127.333 84.5,128C 76.7131,130.78 68.7131,132.613 60.5,133.5C 62.0082,135.507 63.8416,137.174 66,138.5C 66.2784,137.584 66.7784,136.918 67.5,136.5C 69.1667,137.833 70.8333,139.167 72.5,140.5C 71.448,140.351 70.448,140.517 69.5,141C 81.4455,146.882 94.1121,149.548 107.5,149C 113.134,149.634 113.468,150.134 108.5,150.5C 93.4959,151.34 79.4959,148.174 66.5,141C 63.0205,138.688 60.0205,135.854 57.5,132.5C 69.1536,130.169 80.8203,128.002 92.5,126C 74.8773,125.014 58.544,120.014 43.5,111C 40.2956,107.964 37.2956,104.797 34.5,101.5 Z"/></g>
<g><path style={{opacity:1}} fill="#eee4de" d="M 140.5,141.5 C 141.5,142.833 142.5,144.167 143.5,145.5C 143.631,146.239 143.464,146.906 143,147.5C 141.293,145.963 139.793,144.296 138.5,142.5C 139.492,142.672 140.158,142.338 140.5,141.5 Z"/></g>
<g><path style={{opacity:1}} fill="#b99077" d="M 245.5,144.5 C 245.811,143.522 246.478,142.855 247.5,142.5C 248.731,143.651 248.731,144.817 247.5,146C 248.833,146 250.167,146 251.5,146C 250.095,147.269 248.429,147.769 246.5,147.5C 246.737,146.209 246.404,145.209 245.5,144.5 Z"/></g>
<g><path style={{opacity:1}} fill="#b4896f" d="M 245.5,144.5 C 244.745,146.466 243.579,146.8 242,145.5C 240.316,147.351 238.483,149.018 236.5,150.5C 235.806,148.245 234.806,146.245 233.5,144.5C 235.708,143.977 237.208,142.644 238,140.5C 237.667,143.167 237.333,145.833 237,148.5C 239.333,146.167 241.667,143.833 244,141.5C 244.617,142.449 244.451,143.282 243.5,144C 244.094,144.464 244.761,144.631 245.5,144.5 Z"/></g>
<g><path style={{opacity:1}} fill="#ba9279" d="M 273.5,144.5 C 272.455,147.114 271.955,149.78 272,152.5C 274.812,148.845 278.312,146.179 282.5,144.5C 282.289,146.044 282.289,147.71 282.5,149.5C 284.197,148.636 285.363,147.303 286,145.5C 286.71,146.973 287.876,147.64 289.5,147.5C 289.232,149.099 289.566,150.432 290.5,151.5C 290.44,152.043 290.107,152.376 289.5,152.5C 288.833,151.5 288.167,150.5 287.5,149.5C 285.833,150.5 284.5,151.833 283.5,153.5C 281.833,152.167 280.167,150.833 278.5,149.5C 275.888,150.779 273.555,152.445 271.5,154.5C 270.692,152.577 270.192,150.577 270,148.5C 267.5,150.536 264.833,150.87 262,149.5C 261.838,146.834 263.005,144.834 265.5,143.5C 266.5,143.833 267.167,144.5 267.5,145.5C 266.726,146.711 265.893,146.711 265,145.5C 263.812,146.563 263.312,147.897 263.5,149.5C 267.385,148.891 270.718,147.224 273.5,144.5 Z"/></g>
<g><path style={{opacity:1}} fill="#e8d8d0" d="M 72.5,140.5 C 75.6057,142.268 78.9391,143.768 82.5,145C 94.5993,147.256 106.599,148.09 118.5,147.5C 118.5,148.833 118.5,150.167 118.5,151.5C 114.958,151.813 111.625,151.479 108.5,150.5C 113.468,150.134 113.134,149.634 107.5,149C 94.1121,149.548 81.4455,146.882 69.5,141C 70.448,140.517 71.448,140.351 72.5,140.5 Z"/></g>
<g><path style={{opacity:1}} fill="#a67455" d="M 290.5,151.5 C 292.089,150.128 293.422,148.461 294.5,146.5C 294.833,146.667 295.167,146.833 295.5,147C 294.167,149 294.167,151 295.5,153C 294.257,154.154 293.257,155.488 292.5,157C 291.668,157.688 291.002,157.521 290.5,156.5C 291.145,155.354 291.978,154.354 293,153.5C 293.667,152.5 293.667,151.5 293,150.5C 292.329,151.252 291.496,151.586 290.5,151.5 Z"/></g>
<g><path style={{opacity:1}} fill="#bb957d" d="M 309.5,154.5 C 309.541,151.195 310.875,149.029 313.5,148C 312.267,150.314 310.933,152.481 309.5,154.5 Z"/></g>
<g><path style={{opacity:1}} fill="#90512a" d="M 165.5,143.5 C 166.536,150.465 167.036,157.465 167,164.5C 165.705,157.983 164.871,151.316 164.5,144.5C 164.5,143.833 164.833,143.5 165.5,143.5 Z"/></g>
<g><path style={{opacity:1}} fill="#d0b3a2" d="M 315.5,150.5 C 315.804,151.15 316.137,151.817 316.5,152.5C 314.497,154.133 313.164,156.133 312.5,158.5C 311.833,158.167 311.167,157.833 310.5,157.5C 310.5,157.167 310.5,156.833 310.5,156.5C 311.443,153.891 313.11,151.891 315.5,150.5 Z"/></g>
<g><path style={{opacity:1}} fill="#b78d73" d="M 170.5,151.5 C 170.833,151.5 171.167,151.5 171.5,151.5C 171.795,154.734 171.129,157.734 169.5,160.5C 169.167,160.333 168.833,160.167 168.5,160C 169.325,157.222 169.992,154.389 170.5,151.5 Z"/></g>
<g><path style={{opacity:1}} fill="#ac7c5f" d="M 315.5,150.5 C 318.097,154.043 317.097,156.71 312.5,158.5C 313.164,156.133 314.497,154.133 316.5,152.5C 316.137,151.817 315.804,151.15 315.5,150.5 Z"/></g>
<g><path style={{opacity:1}} fill="#ab7a5d" d="M 332.5,156.5 C 332.44,157.043 332.107,157.376 331.5,157.5C 330.749,156.624 330.249,155.624 330,154.5C 327.995,156.8 325.828,156.8 323.5,154.5C 322.167,155.833 320.833,157.167 319.5,158.5C 319.167,158.333 318.833,158.167 318.5,158C 319.167,156.667 319.833,155.333 320.5,154C 319.833,153.667 319.167,153.333 318.5,153C 319.766,152.691 320.933,152.191 322,151.5C 323.137,152.364 324.47,153.364 326,154.5C 328.333,153.167 330.667,151.833 333,150.5C 333.115,152.107 332.615,153.607 331.5,155C 331.57,155.765 331.903,156.265 332.5,156.5 Z"/></g>
<g><path style={{opacity:1}} fill="#945732" d="M 172.5,133.5 C 173.222,133.918 173.722,134.584 174,135.5C 174.941,139.611 175.441,143.778 175.5,148C 173.758,158.135 172.258,168.301 171,178.5C 170.333,173.833 170.333,169.167 171,164.5C 175.031,154.331 175.531,143.998 172.5,133.5 Z"/></g>
<g><path style={{opacity:1}} fill="#955934" d="M 118.5,151.5 C 128.782,154.802 138.782,158.969 148.5,164C 150.255,164.72 151.089,165.887 151,167.5C 136.267,157.85 120.433,155.183 103.5,159.5C 105.273,158.108 107.273,156.941 109.5,156C 115.871,155.516 122.205,155.516 128.5,156C 124.939,154.768 121.606,153.268 118.5,151.5 Z"/></g>
<g><path style={{opacity:1}} fill="#bd9780" d="M 157.5,151.5 C 158.117,151.611 158.617,151.944 159,152.5C 159.736,155.592 159.569,158.592 158.5,161.5C 157.521,158.375 157.187,155.042 157.5,151.5 Z"/></g>
<g><path style={{opacity:1}} fill="#aa795b" d="M 309.5,154.5 C 309.328,155.492 309.662,156.158 310.5,156.5C 310.5,156.833 310.5,157.167 310.5,157.5C 309.597,159.636 308.431,161.636 307,163.5C 306.753,160.151 307.586,157.151 309.5,154.5 Z"/></g>
<g><path style={{opacity:1}} fill="#b89077" d="M 339.5,156.5 C 338.313,158.975 336.313,159.975 333.5,159.5C 333.737,158.209 333.404,157.209 332.5,156.5C 336.579,152.373 337.246,152.873 334.5,158C 336.189,157.866 337.856,157.366 339.5,156.5 Z"/></g>
<g><path style={{opacity:1}} fill="#bf9a83" d="M 342.5,158.5 C 344.435,157.19 346.435,155.857 348.5,154.5C 348.833,155 349.167,155.5 349.5,156C 348.728,157.221 347.728,158.221 346.5,159C 350.144,160.399 349.81,161.066 345.5,161C 344.922,159.583 343.922,158.75 342.5,158.5 Z"/></g>
<g><path style={{opacity:1}} fill="#5e5c5a" d="M 353.5,154.5 C 354.302,155.952 354.802,157.618 355,159.5C 356.337,158.235 357.837,157.735 359.5,158C 356.204,159.47 353.537,161.637 351.5,164.5C 352.131,162.522 352.131,160.355 351.5,158C 352.823,157.184 353.489,156.017 353.5,154.5 Z"/></g>
<g><path style={{opacity:1}} fill="#c3a18c" d="M 117.5,161.5 C 121.167,160.167 124.833,160.167 128.5,161.5C 128.5,161.833 128.5,162.167 128.5,162.5C 126.167,162.5 123.833,162.5 121.5,162.5C 120.432,161.566 119.099,161.232 117.5,161.5 Z"/></g>
<g><path style={{opacity:1}} fill="#a67252" d="M 103.5,159.5 C 101.672,161.61 99.3391,162.444 96.5,162C 98.5692,160.477 100.903,159.643 103.5,159.5 Z"/></g>
<g><path style={{opacity:1}} fill="#a16a49" d="M 117.5,161.5 C 119.099,161.232 120.432,161.566 121.5,162.5C 116.511,163.222 111.511,163.388 106.5,163C 110.086,161.892 113.753,161.392 117.5,161.5 Z"/></g>
<g><path style={{opacity:1}} fill="#a9785a" d="M 342.5,158.5 C 341.791,161.59 340.124,162.923 337.5,162.5C 338.711,161.126 339.711,159.626 340.5,158C 340.43,157.235 340.097,156.735 339.5,156.5C 339.987,155.527 340.487,154.527 341,153.5C 341.198,155.382 341.698,157.048 342.5,158.5 Z"/></g>
<g><path style={{opacity:1}} fill="#a36e4d" d="M 128.5,162.5 C 128.5,162.167 128.5,161.833 128.5,161.5C 133.438,161.534 138.104,162.701 142.5,165C 137.83,164.507 133.163,163.674 128.5,162.5 Z"/></g>
<g><path style={{opacity:1}} fill="#8c4c24" d="M 114.5,166.5 C 117.984,165.835 121.651,165.501 125.5,165.5C 129.947,165.396 134.28,165.896 138.5,167C 130.546,166.637 122.546,166.47 114.5,166.5 Z"/></g>
<g><path style={{opacity:1}} fill="#8e4f28" d="M 107.5,167.5 C 115.495,168 123.495,168.5 131.5,169C 129.527,169.495 127.527,169.662 125.5,169.5C 120.821,169.666 116.155,169.499 111.5,169C 109.942,168.79 108.609,168.29 107.5,167.5 Z"/></g>
<g><path style={{opacity:1}} fill="#a26c4b" d="M 165.5,177.5 C 167.481,178.105 167.815,179.105 166.5,180.5C 157.971,174.041 148.304,170.207 137.5,169C 147.768,168.7 157.102,171.533 165.5,177.5 Z"/></g>
<g><path style={{opacity:1}} fill="#d0b4a4" d="M 107.5,167.5 C 108.609,168.29 109.942,168.79 111.5,169C 116.155,169.499 120.821,169.666 125.5,169.5C 127.833,170.167 130.167,170.833 132.5,171.5C 126.974,171.179 121.64,171.512 116.5,172.5C 114.585,172.784 112.919,172.451 111.5,171.5C 112.552,171.649 113.552,171.483 114.5,171C 108.759,170.032 103.425,168.198 98.5,165.5C 98.3691,164.624 98.7025,163.957 99.5,163.5C 102.148,165.038 104.815,166.372 107.5,167.5 Z"/></g>
<g><path style={{opacity:1}} fill="#9a613e" d="M 98.5,165.5 C 103.425,168.198 108.759,170.032 114.5,171C 113.552,171.483 112.552,171.649 111.5,171.5C 107.402,170.735 103.402,169.902 99.5,169C 103.573,175.58 109.24,180.08 116.5,182.5C 118.562,183.776 120.896,184.61 123.5,185C 131.833,185.333 140.167,185.667 148.5,186C 151.376,186.438 154.043,187.438 156.5,189C 151.806,187.931 146.973,187.097 142,186.5C 132.942,188.252 124.108,187.585 115.5,184.5C 106.453,179.624 99.12,172.791 93.5,164C 95.2816,163.878 96.9482,164.378 98.5,165.5 Z"/></g>
<g><path style={{opacity:1}} fill="#955934" d="M 116.5,172.5 C 121.64,171.512 126.974,171.179 132.5,171.5C 143.634,171.367 153.967,174.2 163.5,180C 164.696,180.654 164.696,181.154 163.5,181.5C 148.805,173.934 133.138,170.934 116.5,172.5 Z"/></g>
<g><path style={{opacity:1}} fill="#f3ebe7" d="M 196.5,174.5 C 197.728,178.914 198.728,183.414 199.5,188C 198.128,194.608 196.461,201.108 194.5,207.5C 193.566,206.432 193.232,205.099 193.5,203.5C 194.657,199.207 195.657,194.873 196.5,190.5C 197.867,186.895 197.7,183.229 196,179.5C 195.503,182.146 195.336,184.813 195.5,187.5C 194.659,192.532 193.659,197.532 192.5,202.5C 191.662,202.842 191.328,203.508 191.5,204.5C 191.851,207.041 191.518,208.708 190.5,209.5C 190.337,204.453 190.671,199.453 191.5,194.5C 189.918,198.071 188.585,201.738 187.5,205.5C 185.88,202.772 184.88,199.772 184.5,196.5C 184.149,190.738 184.649,185.072 186,179.5C 186.333,180.167 186.667,180.833 187,181.5C 189.551,177.065 191.551,172.399 193,167.5C 193.167,168.333 193.333,169.167 193.5,170C 191.334,177.164 189.168,184.331 187,191.5C 186.333,194.167 186.333,196.833 187,199.5C 188.244,190.857 190.577,182.523 194,174.5C 194.77,173.402 195.603,173.402 196.5,174.5 Z"/></g>
<g><path style={{opacity:1}} fill="#aa785a" d="M 127.5,182.5 C 127.5,182.833 127.5,183.167 127.5,183.5C 124.833,183.167 122.167,182.833 119.5,182.5C 118.261,181.788 117.761,180.788 118,179.5C 121.188,180.767 124.355,181.767 127.5,182.5 Z"/></g>
<g><path style={{opacity:1}} fill="#90512b" d="M 154.5,181.5 C 145.712,183.03 136.712,183.697 127.5,183.5C 127.5,183.167 127.5,182.833 127.5,182.5C 134.593,182.749 141.593,182.083 148.5,180.5C 150.548,180.672 152.548,181.005 154.5,181.5 Z"/></g>
<g><path style={{opacity:1}} fill="#8d4d26" d="M 33.5,72.5 C 37.0748,74.8719 40.9082,76.8719 45,78.5C 45.4643,77.9056 45.631,77.2389 45.5,76.5C 54.4723,82.4825 63.8056,87.6491 73.5,92C 71.282,89.8428 70.1154,87.3428 70,84.5C 72.6068,89.3743 75.9401,93.7076 80,97.5C 80.195,96.1807 80.0283,94.8474 79.5,93.5C 83.9218,99.5803 89.5885,104.247 96.5,107.5C 96.4346,107.938 96.6012,108.272 97,108.5C 97.2784,107.584 97.7784,106.918 98.5,106.5C 99.2371,108.305 100.237,109.971 101.5,111.5C 102.298,111.043 102.631,110.376 102.5,109.5C 103.268,110.263 103.768,111.263 104,112.5C 106.213,112.944 107.88,114.611 109,117.5C 109.654,118.696 110.154,118.696 110.5,117.5C 106.917,111.258 105.751,104.591 107,97.5C 107.607,105.536 109.607,113.202 113,120.5C 118.606,124.269 123.772,128.602 128.5,133.5C 128.833,133.333 129.167,133.167 129.5,133C 126.851,128.904 125.517,124.404 125.5,119.5C 125.185,115.629 125.518,111.962 126.5,108.5C 126.334,113.511 126.501,118.511 127,123.5C 127.663,127.035 129.163,130.035 131.5,132.5C 132.359,136.892 134.693,140.225 138.5,142.5C 139.793,144.296 141.293,145.963 143,147.5C 143.464,146.906 143.631,146.239 143.5,145.5C 145.904,148.631 148.071,151.964 150,155.5C 152,157.5 154,159.5 156,161.5C 156.499,157.179 156.666,152.846 156.5,148.5C 156.833,148.5 157.167,148.5 157.5,148.5C 157.5,149.5 157.5,150.5 157.5,151.5C 157.187,155.042 157.521,158.375 158.5,161.5C 163.028,169.54 168.194,177.207 174,184.5C 173.971,181.049 173.804,177.549 173.5,174C 173.428,170.71 173.928,167.544 175,164.5C 174.105,171.893 174.605,179.226 176.5,186.5C 177.519,191.751 178.519,191.751 179.5,186.5C 179.998,189.487 180.498,192.487 181,195.5C 181.383,196.056 181.883,196.389 182.5,196.5C 183.167,196.5 183.833,196.5 184.5,196.5C 184.88,199.772 185.88,202.772 187.5,205.5C 188.659,206.74 189.659,208.074 190.5,209.5C 191.518,208.708 191.851,207.041 191.5,204.5C 192.434,205.568 192.768,206.901 192.5,208.5C 192.159,212.16 192.825,215.493 194.5,218.5C 194.989,219.995 195.655,221.329 196.5,222.5C 197.507,222.548 197.84,221.548 197.5,219.5C 198.29,220.609 198.79,221.942 199,223.5C 199.383,222.944 199.883,222.611 200.5,222.5C 200.338,224.527 200.505,226.527 201,228.5C 202.835,222.819 205.668,217.819 209.5,213.5C 209.5,214.5 209.5,215.5 209.5,216.5C 207.674,218.147 206.34,220.147 205.5,222.5C 202.418,226.255 201.252,230.589 202,235.5C 202.383,234.944 202.883,234.611 203.5,234.5C 203.34,236.199 203.506,237.866 204,239.5C 204.374,237.509 205.207,235.842 206.5,234.5C 204.849,242.96 206.516,243.293 211.5,235.5C 209.868,235.238 208.701,236.238 208,238.5C 209.071,233.909 211.904,230.576 216.5,228.5C 216.557,229.609 216.89,230.609 217.5,231.5C 214.927,232.879 213.427,234.879 213,237.5C 216.333,234.998 219.499,232.332 222.5,229.5C 219.819,234.511 215.819,238.178 210.5,240.5C 209.919,242.595 209.919,244.428 210.5,246C 209.365,246.749 208.365,246.583 207.5,245.5C 208.59,244.391 208.59,243.391 207.5,242.5C 206.28,242.887 205.613,243.72 205.5,245C 207.833,252.667 210.167,260.333 212.5,268C 212.905,268.945 213.572,269.612 214.5,270C 213.781,272.556 212.114,273.723 209.5,273.5C 209.784,271.585 209.451,269.919 208.5,268.5C 208.802,265.941 208.468,263.607 207.5,261.5C 205.87,253.778 203.537,246.278 200.5,239C 198.577,238.192 196.577,237.692 194.5,237.5C 185.65,240.037 176.65,240.87 167.5,240C 163.658,237.961 159.991,235.794 156.5,233.5C 169.156,233.487 181.823,233.821 194.5,234.5C 196.565,233.691 196.232,232.691 193.5,231.5C 192.914,231.709 192.414,232.043 192,232.5C 187.707,230.674 183.207,229.674 178.5,229.5C 183.659,228.541 183.659,227.541 178.5,226.5C 171.2,225.773 163.867,225.273 156.5,225C 162.123,223.971 167.79,223.471 173.5,223.5C 178.681,224.728 183.681,226.728 188.5,229.5C 189.696,229.154 189.696,228.654 188.5,228C 186.273,227.059 184.273,225.892 182.5,224.5C 187.941,226.259 192.941,228.926 197.5,232.5C 197.833,232.333 198.167,232.167 198.5,232C 196.237,230.383 194.237,228.55 192.5,226.5C 193.239,226.631 193.906,226.464 194.5,226C 193.619,225.292 192.953,224.458 192.5,223.5C 193.239,223.631 193.906,223.464 194.5,223C 192.959,221.629 191.625,220.129 190.5,218.5C 191.833,217.833 191.833,217.167 190.5,216.5C 187.367,212.933 183.367,210.933 178.5,210.5C 180.343,209.717 182.343,209.05 184.5,208.5C 185.478,208.977 186.311,209.643 187,210.5C 187.667,209.833 187.667,209.167 187,208.5C 185.188,207.023 183.355,205.69 181.5,204.5C 182.239,204.631 182.906,204.464 183.5,204C 182.429,203.148 181.429,202.315 180.5,201.5C 181.471,200.038 181.138,198.705 179.5,197.5C 178.856,194.856 177.189,193.189 174.5,192.5C 175.517,190.528 174.85,189.195 172.5,188.5C 172.027,187.094 171.027,186.427 169.5,186.5C 170.091,185.849 170.757,185.182 171.5,184.5C 170.293,182.459 168.626,181.126 166.5,180.5C 167.815,179.105 167.481,178.105 165.5,177.5C 158.468,168.288 150.801,159.455 142.5,151C 133.817,144.911 124.15,142.078 113.5,142.5C 111.901,142.768 110.568,142.434 109.5,141.5C 114.844,141.334 120.177,141.501 125.5,142C 129.542,143.245 133.542,144.245 137.5,145C 126.052,133.212 113.719,122.546 100.5,113C 97.1792,111.396 93.8458,109.896 90.5,108.5C 91.5063,107.604 91.5063,106.938 90.5,106.5C 88.3805,104.6 86.0472,102.934 83.5,101.5C 79.2027,97.8536 74.2027,95.5203 68.5,94.5C 70.0311,93.0755 69.6977,92.4088 67.5,92.5C 64.7846,90.9281 61.7846,89.9281 58.5,89.5C 61.0983,88.5278 61.0983,87.5278 58.5,86.5C 50.3968,81.9099 41.7301,78.9099 32.5,77.5C 32.8333,76.8333 33.1667,76.1667 33.5,75.5C 34.2389,75.631 34.9056,75.4643 35.5,75C 34.6195,74.2917 33.9528,73.4584 33.5,72.5 Z"/></g>
<g><path style={{opacity:1}} fill="#c9ab98" d="M 179.5,186.5 C 178.519,191.751 177.519,191.751 176.5,186.5C 177.468,177.396 178.468,177.396 179.5,186.5 Z"/></g>
<g><path style={{opacity:1}} fill="#b3896f" d="M 196.5,190.5 C 196.737,189.209 196.404,188.209 195.5,187.5C 195.336,184.813 195.503,182.146 196,179.5C 197.7,183.229 197.867,186.895 196.5,190.5 Z"/></g>
<g><path style={{opacity:1}} fill="#f7f3f0" d="M 154.5,181.5 C 155.167,181.5 155.5,181.833 155.5,182.5C 161.372,184.185 166.872,186.851 172,190.5C 172.464,189.906 172.631,189.239 172.5,188.5C 174.85,189.195 175.517,190.528 174.5,192.5C 173.798,193.116 172.798,193.116 171.5,192.5C 173.237,194.55 175.237,196.383 177.5,198C 178.437,198.692 179.103,198.525 179.5,197.5C 181.138,198.705 181.471,200.038 180.5,201.5C 180.158,200.662 179.492,200.328 178.5,200.5C 176.005,198.286 173.005,197.119 169.5,197C 160.541,195.783 151.541,195.283 142.5,195.5C 139.727,194.343 136.727,193.676 133.5,193.5C 136.146,195.253 139.146,196.253 142.5,196.5C 154.137,195.772 165.47,197.106 176.5,200.5C 176.5,201.167 176.167,201.5 175.5,201.5C 164.914,199.93 154.247,199.097 143.5,199C 132.285,197.561 122.952,192.728 115.5,184.5C 124.108,187.585 132.942,188.252 142,186.5C 146.973,187.097 151.806,187.931 156.5,189C 154.043,187.438 151.376,186.438 148.5,186C 140.167,185.667 131.833,185.333 123.5,185C 120.896,184.61 118.562,183.776 116.5,182.5C 117.5,182.5 118.5,182.5 119.5,182.5C 122.167,182.833 124.833,183.167 127.5,183.5C 136.712,183.697 145.712,183.03 154.5,181.5 Z"/></g>
<g><path style={{opacity:1}} fill="#9f6947" d="M 149.5,184.5 C 150.849,183.203 152.182,183.37 153.5,185C 152.072,185.579 150.738,185.412 149.5,184.5 Z"/></g>
<g><path style={{opacity:1}} fill="#9c6542" d="M 191.5,194.5 C 191.999,190.51 192.499,186.51 193,182.5C 193.667,185.833 193.667,189.167 193,192.5C 192.722,193.416 192.222,194.082 191.5,194.5 Z"/></g>
<g><path style={{opacity:1}} fill="#f5efec" d="M 211.5,193.5 C 212.338,193.842 212.672,194.508 212.5,195.5C 211.636,201.39 210.636,207.39 209.5,213.5C 205.668,217.819 202.835,222.819 201,228.5C 200.505,226.527 200.338,224.527 200.5,222.5C 206.803,214.216 209.303,204.883 208,194.5C 207.659,204.199 204.992,213.199 200,221.5C 199.868,215.546 201.202,209.88 204,204.5C 205.28,197.876 206.28,191.21 207,184.5C 208.525,188.201 210.025,191.201 211.5,193.5 Z"/></g>
<g><path style={{opacity:1}} fill="#dfccc0" d="M 169.5,186.5 C 171.027,186.427 172.027,187.094 172.5,188.5C 170.973,188.573 169.973,187.906 169.5,186.5 Z"/></g>
<g><path style={{opacity:1}} fill="#9c6442" d="M 155.5,182.5 C 160.465,182.822 165.132,184.156 169.5,186.5C 169.973,187.906 170.973,188.573 172.5,188.5C 172.631,189.239 172.464,189.906 172,190.5C 166.872,186.851 161.372,184.185 155.5,182.5 Z"/></g>
<g><path style={{opacity:1}} fill="#975d39" d="M 221.5,190.5 C 221.565,190.938 221.399,191.272 221,191.5C 220.667,190.833 220.333,190.167 220,189.5C 219.503,191.81 219.337,194.143 219.5,196.5C 219.063,203.029 216.73,208.695 212.5,213.5C 216.383,206.302 218.216,198.635 218,190.5C 217.802,192.382 217.302,194.048 216.5,195.5C 216.4,190.22 216.9,186.553 218,184.5C 219.442,186.391 220.609,188.391 221.5,190.5 Z"/></g>
<g><path style={{opacity:1}} fill="#9a613e" d="M 171.5,192.5 C 167.15,190.77 162.817,188.937 158.5,187C 163.534,187.184 167.868,189.017 171.5,192.5 Z"/></g>
<g><path style={{opacity:1}} fill="#9d6644" d="M 133.5,193.5 C 131.897,193.688 130.563,193.188 129.5,192C 131.14,191.652 132.473,192.152 133.5,193.5 Z"/></g>
<g><path style={{opacity:1}} fill="#be957e" d="M 171.5,192.5 C 172.798,193.116 173.798,193.116 174.5,192.5C 177.189,193.189 178.856,194.856 179.5,197.5C 179.103,198.525 178.437,198.692 177.5,198C 175.237,196.383 173.237,194.55 171.5,192.5 Z"/></g>
<g><path style={{opacity:1}} fill="#af8165" d="M 203.5,188.5 C 203.81,189.738 204.31,189.738 205,188.5C 205.74,189.749 205.573,190.749 204.5,191.5C 203.26,194.024 202.093,196.691 201,199.5C 201.337,195.672 202.17,192.005 203.5,188.5 Z"/></g>
<g><path style={{opacity:1}} fill="#ceb2a1" d="M 221.5,190.5 C 222.404,191.209 222.737,192.209 222.5,193.5C 221.833,194.833 221.167,196.167 220.5,197.5C 220.5,196.833 220.167,196.5 219.5,196.5C 219.337,194.143 219.503,191.81 220,189.5C 220.333,190.167 220.667,190.833 221,191.5C 221.399,191.272 221.565,190.938 221.5,190.5 Z"/></g>
<g><path style={{opacity:1}} fill="#a87556" d="M 133.5,193.5 C 136.727,193.676 139.727,194.343 142.5,195.5C 142.5,195.833 142.5,196.167 142.5,196.5C 139.146,196.253 136.146,195.253 133.5,193.5 Z"/></g>
<g><path style={{opacity:1}} fill="#90522b" d="M 195.5,187.5 C 196.404,188.209 196.737,189.209 196.5,190.5C 195.657,194.873 194.657,199.207 193.5,203.5C 192.833,203.5 192.5,203.167 192.5,202.5C 193.659,197.532 194.659,192.532 195.5,187.5 Z"/></g>
<g><path style={{opacity:1}} fill="#9b603d" d="M 196.5,174.5 C 198.163,176.493 199.33,178.826 200,181.5C 200.667,186.167 200.667,190.833 200,195.5C 198.193,199.756 196.693,204.089 195.5,208.5C 194.833,208.5 194.5,208.167 194.5,207.5C 196.461,201.108 198.128,194.608 199.5,188C 198.728,183.414 197.728,178.914 196.5,174.5 Z"/></g>
<g><path style={{opacity:1}} fill="#92542f" d="M 142.5,196.5 C 142.5,196.167 142.5,195.833 142.5,195.5C 151.541,195.283 160.541,195.783 169.5,197C 173.005,197.119 176.005,198.286 178.5,200.5C 177.833,200.5 177.167,200.5 176.5,200.5C 165.47,197.106 154.137,195.772 142.5,196.5 Z"/></g>
<g><path style={{opacity:1}} fill="#9f6a49" d="M 236.5,200.5 C 236.461,199.244 236.961,198.244 238,197.5C 238.585,198.998 238.085,199.998 236.5,200.5 Z"/></g>
<g><path style={{opacity:1}} fill="#8f5029" d="M 115.5,184.5 C 122.952,192.728 132.285,197.561 143.5,199C 154.247,199.097 164.914,199.93 175.5,201.5C 177.629,202.203 179.629,203.203 181.5,204.5C 181.167,204.5 180.833,204.5 180.5,204.5C 173.048,202.028 165.381,201.028 157.5,201.5C 157.5,202.833 157.5,204.167 157.5,205.5C 164.5,204.167 171.5,204.167 178.5,205.5C 178.5,206.167 178.167,206.5 177.5,206.5C 172.187,205.638 166.854,205.471 161.5,206C 156.019,208.107 150.353,209.44 144.5,210C 146.001,211.252 147.668,212.252 149.5,213C 156.833,213.333 164.167,213.667 171.5,214C 173.058,214.21 174.391,214.71 175.5,215.5C 169.19,214.81 162.857,214.476 156.5,214.5C 156.338,216.527 156.505,218.527 157,220.5C 158.599,218.964 160.433,218.464 162.5,219C 156.97,222.394 151.637,225.894 146.5,229.5C 145.022,229.762 143.689,229.429 142.5,228.5C 145.145,227.808 147.645,226.808 150,225.5C 150.825,221.789 150.659,218.122 149.5,214.5C 146.6,213.557 144.267,211.89 142.5,209.5C 145.654,207.974 148.987,207.307 152.5,207.5C 152.5,205.167 152.5,202.833 152.5,200.5C 137.815,201.57 125.315,196.903 115,186.5C 114.308,185.563 114.475,184.897 115.5,184.5 Z"/></g>
<g><path style={{opacity:1}} fill="#f1e8e3" d="M 180.5,204.5 C 180.158,205.338 179.492,205.672 178.5,205.5C 171.5,204.167 164.5,204.167 157.5,205.5C 157.5,204.167 157.5,202.833 157.5,201.5C 165.381,201.028 173.048,202.028 180.5,204.5 Z"/></g>
<g><path style={{opacity:1}} fill="#ab7b5e" d="M 191.5,194.5 C 190.671,199.453 190.337,204.453 190.5,209.5C 189.659,208.074 188.659,206.74 187.5,205.5C 188.585,201.738 189.918,198.071 191.5,194.5 Z"/></g>
<g><path style={{opacity:1}} fill="#a9795c" d="M 236.5,209.5 C 237.617,205.274 239.784,201.607 243,198.5C 243.315,199.908 242.982,201.241 242,202.5C 240.147,204.903 238.314,207.236 236.5,209.5 Z"/></g>
<g><path style={{opacity:1}} fill="#d5baab" d="M 176.5,200.5 C 177.167,200.5 177.833,200.5 178.5,200.5C 179.492,200.328 180.158,200.662 180.5,201.5C 181.429,202.315 182.429,203.148 183.5,204C 182.906,204.464 182.239,204.631 181.5,204.5C 179.629,203.203 177.629,202.203 175.5,201.5C 176.167,201.5 176.5,201.167 176.5,200.5 Z"/></g>
<g><path style={{opacity:1}} fill="#e9dcd4" d="M 212.5,213.5 C 211.272,214.306 210.272,215.306 209.5,216.5C 209.5,215.5 209.5,214.5 209.5,213.5C 210.793,212.158 211.626,210.491 212,208.5C 212.498,205.183 212.665,201.85 212.5,198.5C 213.268,199.263 213.768,200.263 214,201.5C 214.845,199.389 215.678,197.389 216.5,195.5C 217.302,194.048 217.802,192.382 218,190.5C 218.216,198.635 216.383,206.302 212.5,213.5 Z"/></g>
<g><path style={{opacity:1}} fill="#b18367" d="M 236.5,200.5 C 233.975,205.91 232.141,211.577 231,217.5C 230.305,214.004 230.805,210.67 232.5,207.5C 231.645,206.707 230.811,207.04 230,208.5C 228.916,214.535 227.083,220.202 224.5,225.5C 225.014,223.488 225.18,221.488 225,219.5C 223.608,221.842 222.775,221.842 222.5,219.5C 222.427,217.973 223.094,216.973 224.5,216.5C 225.222,216.918 225.722,217.584 226,218.5C 227.392,216.059 227.559,213.726 226.5,211.5C 226.962,209.243 227.962,207.243 229.5,205.5C 230.274,204.289 231.107,204.289 232,205.5C 233.517,203.76 235.017,202.094 236.5,200.5 Z"/></g>
<g><path style={{opacity:1}} fill="#f4ede9" d="M 177.5,206.5 C 178.263,207.268 179.263,207.768 180.5,208C 179.552,208.483 178.552,208.649 177.5,208.5C 172.821,208.334 168.155,208.501 163.5,209C 161.148,209.24 159.148,210.073 157.5,211.5C 163.731,209.994 170.064,209.327 176.5,209.5C 176.842,210.338 177.508,210.672 178.5,210.5C 183.367,210.933 187.367,212.933 190.5,216.5C 190.565,216.938 190.399,217.272 190,217.5C 184.052,212.407 177.219,210.574 169.5,212C 177.094,212.479 184.094,214.645 190.5,218.5C 191.625,220.129 192.959,221.629 194.5,223C 193.906,223.464 193.239,223.631 192.5,223.5C 191.341,221.75 189.674,220.75 187.5,220.5C 184.001,217.754 180.001,216.087 175.5,215.5C 174.391,214.71 173.058,214.21 171.5,214C 164.167,213.667 156.833,213.333 149.5,213C 147.668,212.252 146.001,211.252 144.5,210C 150.353,209.44 156.019,208.107 161.5,206C 166.854,205.471 172.187,205.638 177.5,206.5 Z"/></g>
<g><path style={{opacity:1}} fill="#cbab97" d="M 180.5,204.5 C 180.833,204.5 181.167,204.5 181.5,204.5C 183.355,205.69 185.188,207.023 187,208.5C 187.667,209.167 187.667,209.833 187,210.5C 186.311,209.643 185.478,208.977 184.5,208.5C 182.343,209.05 180.343,209.717 178.5,210.5C 177.508,210.672 176.842,210.338 176.5,209.5C 177.167,209.5 177.5,209.167 177.5,208.5C 178.552,208.649 179.552,208.483 180.5,208C 179.263,207.768 178.263,207.268 177.5,206.5C 178.167,206.5 178.5,206.167 178.5,205.5C 179.492,205.672 180.158,205.338 180.5,204.5 Z"/></g>
<g><path style={{opacity:1}} fill="#c3a18b" d="M 192.5,202.5 C 192.5,203.167 192.833,203.5 193.5,203.5C 193.232,205.099 193.566,206.432 194.5,207.5C 194.5,208.167 194.833,208.5 195.5,208.5C 194.459,213.659 193.459,213.659 192.5,208.5C 192.768,206.901 192.434,205.568 191.5,204.5C 191.328,203.508 191.662,202.842 192.5,202.5 Z"/></g>
<g><path style={{opacity:1}} fill="#87441b" d="M 177.5,208.5 C 177.5,209.167 177.167,209.5 176.5,209.5C 170.064,209.327 163.731,209.994 157.5,211.5C 159.148,210.073 161.148,209.24 163.5,209C 168.155,208.501 172.821,208.334 177.5,208.5 Z"/></g>
<g><path style={{opacity:1}} fill="#9d6543" d="M 222.5,193.5 C 222.773,202.024 220.106,209.358 214.5,215.5C 215.739,212.411 217.239,209.411 219,206.5C 219.953,203.568 220.453,200.568 220.5,197.5C 221.167,196.167 221.833,194.833 222.5,193.5 Z"/></g>
<g><path style={{opacity:1}} fill="#99603c" d="M 212.5,195.5 C 212.5,196.5 212.5,197.5 212.5,198.5C 212.665,201.85 212.498,205.183 212,208.5C 211.626,210.491 210.793,212.158 209.5,213.5C 210.636,207.39 211.636,201.39 212.5,195.5 Z"/></g>
<g><path style={{opacity:1}} fill="#ba927a" d="M 247.5,211.5 C 249.168,209.66 250.668,207.66 252,205.5C 252.492,206.549 252.326,207.549 251.5,208.5C 253,209.5 254.5,210.5 256,211.5C 258.543,212.49 260.709,212.49 262.5,211.5C 262,212.5 261.5,213.5 261,214.5C 260,213.167 259,213.167 258,214.5C 256.982,212.436 255.649,212.102 254,213.5C 253.055,213.095 252.388,212.428 252,211.5C 250.647,212.685 249.48,214.019 248.5,215.5C 248.24,214.095 247.907,212.762 247.5,211.5 Z"/></g>
<g><path style={{opacity:1}} fill="#90522d" d="M 157.5,211.5 C 154.893,212.802 152.227,212.636 149.5,211C 152.157,210.825 154.824,210.992 157.5,211.5 Z"/></g>
<g><path style={{opacity:1}} fill="#9f6846" d="M 312.5,213.5 C 312.461,212.244 312.961,211.244 314,210.5C 314.585,211.998 314.085,212.998 312.5,213.5 Z"/></g>
<g><path style={{opacity:1}} fill="#a26c4b" d="M 190.5,216.5 C 191.833,217.167 191.833,217.833 190.5,218.5C 184.094,214.645 177.094,212.479 169.5,212C 177.219,210.574 184.052,212.407 190,217.5C 190.399,217.272 190.565,216.938 190.5,216.5 Z"/></g>
<g><path style={{opacity:1}} fill="#f7f3f1" d="M 226.5,211.5 C 227.559,213.726 227.392,216.059 226,218.5C 225.722,217.584 225.222,216.918 224.5,216.5C 225.167,214.833 225.833,213.167 226.5,211.5 Z"/></g>
<g><path style={{opacity:1}} fill="#b78d74" d="M 247.5,211.5 C 246.09,212.828 244.924,212.495 244,210.5C 240.917,212.438 237.751,214.104 234.5,215.5C 234.595,213.214 235.262,211.214 236.5,209.5C 236.343,210.873 236.51,212.207 237,213.5C 239.555,209.928 242.888,207.595 247,206.5C 247.265,208.163 246.765,209.663 245.5,211C 246.094,211.464 246.761,211.631 247.5,211.5 Z"/></g>
<g><path style={{opacity:1}} fill="#a87759" d="M 312.5,213.5 C 312.573,215.027 311.906,216.027 310.5,216.5C 310.427,214.973 311.094,213.973 312.5,213.5 Z"/></g>
<g><path style={{opacity:1}} fill="#a87758" d="M 196.5,222.5 C 195.655,221.329 194.989,219.995 194.5,218.5C 195.282,215.286 196.115,211.952 197,208.5C 196.774,213.123 196.607,217.79 196.5,222.5 Z"/></g>
<g><path style={{opacity:1}} fill="#bb937a" d="M 267.5,209.5 C 269.648,209.389 269.981,210.056 268.5,211.5C 268.938,212.506 269.604,212.506 270.5,211.5C 271.131,216.161 272.964,216.494 276,212.5C 275.805,214.126 275.805,215.793 276,217.5C 276.718,216.549 277.551,216.383 278.5,217C 277.737,217.944 276.737,218.444 275.5,218.5C 273.944,217.453 272.277,216.786 270.5,216.5C 270.719,215.325 270.386,214.325 269.5,213.5C 267.833,214.5 266.5,215.833 265.5,217.5C 264.808,216.975 264.308,216.308 264,215.5C 262.951,216.517 261.784,216.684 260.5,216C 264.008,214.988 266.342,212.822 267.5,209.5 Z"/></g>
<g><path style={{opacity:1}} fill="#985e3b" d="M 211.5,193.5 C 210.025,191.201 208.525,188.201 207,184.5C 206.28,191.21 205.28,197.876 204,204.5C 201.202,209.88 199.868,215.546 200,221.5C 204.992,213.199 207.659,204.199 208,194.5C 209.303,204.883 206.803,214.216 200.5,222.5C 199.883,222.611 199.383,222.944 199,223.5C 198.79,221.942 198.29,220.609 197.5,219.5C 201.058,210.489 203.391,201.155 204.5,191.5C 205.573,190.749 205.74,189.749 205,188.5C 204.31,189.738 203.81,189.738 203.5,188.5C 203.334,184.486 203.501,180.486 204,176.5C 205.565,180.4 207.565,184.066 210,187.5C 210.813,189.436 211.313,191.436 211.5,193.5 Z"/></g>
<g><path style={{opacity:1}} fill="#b6896f" d="M 212.5,213.5 C 210.668,217.836 208.335,221.836 205.5,225.5C 205.5,224.5 205.5,223.5 205.5,222.5C 206.34,220.147 207.674,218.147 209.5,216.5C 210.272,215.306 211.272,214.306 212.5,213.5 Z"/></g>
<g><path style={{opacity:1}} fill="#ecdfd8" d="M 219.5,196.5 C 220.167,196.5 220.5,196.833 220.5,197.5C 220.453,200.568 219.953,203.568 219,206.5C 217.239,209.411 215.739,212.411 214.5,215.5C 214.297,217.044 213.63,218.378 212.5,219.5C 213.262,219.911 214.262,220.077 215.5,220C 214.922,221.417 213.922,222.25 212.5,222.5C 210.086,223.911 208.419,225.911 207.5,228.5C 206.883,228.611 206.383,228.944 206,229.5C 205.51,228.207 205.343,226.873 205.5,225.5C 208.335,221.836 210.668,217.836 212.5,213.5C 216.73,208.695 219.063,203.029 219.5,196.5 Z"/></g>
<g><path style={{opacity:1}} fill="#f2e9e5" d="M 222.5,219.5 C 222.775,221.842 223.608,221.842 225,219.5C 225.18,221.488 225.014,223.488 224.5,225.5C 224.843,227.483 224.176,228.817 222.5,229.5C 219.499,232.332 216.333,234.998 213,237.5C 213.427,234.879 214.927,232.879 217.5,231.5C 218.458,231.047 219.292,230.381 220,229.5C 221.248,223.41 220.081,223.077 216.5,228.5C 211.904,230.576 209.071,233.909 208,238.5C 208.701,236.238 209.868,235.238 211.5,235.5C 206.516,243.293 204.849,242.96 206.5,234.5C 207.906,234.027 208.573,233.027 208.5,231.5C 213.461,227.874 218.128,223.874 222.5,219.5 Z"/></g>
<g><path style={{opacity:1}} fill="#ab7a5d" d="M 310.5,216.5 C 310.369,217.239 310.536,217.906 311,218.5C 311.893,217.289 312.726,217.289 313.5,218.5C 312.91,219.799 311.91,220.632 310.5,221C 313.674,221.506 316.507,220.672 319,218.5C 319.333,219.167 319.667,219.833 320,220.5C 321.512,219.743 322.846,218.743 324,217.5C 324.353,218.672 324.187,219.838 323.5,221C 323.836,222.03 324.503,222.53 325.5,222.5C 324.791,223.404 323.791,223.737 322.5,223.5C 322.649,222.448 322.483,221.448 322,220.5C 320.477,222.62 318.644,222.953 316.5,221.5C 312.774,221.744 309.607,223.077 307,225.5C 307.476,223.68 307.309,222.013 306.5,220.5C 307.5,218.833 308.833,217.5 310.5,216.5 Z"/></g>
<g><path style={{opacity:1}} fill="#b99279" d="M 296.5,220.5 C 294.365,220.305 292.032,220.639 289.5,221.5C 289.413,218.402 289.913,218.068 291,220.5C 292.333,219.167 293.667,217.833 295,216.5C 295.21,218.058 295.71,219.391 296.5,220.5 Z"/></g>
<g><path style={{opacity:1}} fill="#9a603d" d="M 175.5,215.5 C 180.001,216.087 184.001,217.754 187.5,220.5C 186.448,220.351 185.448,220.517 184.5,221C 187.621,222.306 190.287,224.14 192.5,226.5C 183.634,221.158 173.967,218.325 163.5,218C 169.453,217.149 175.286,217.649 181,219.5C 181.5,219.333 182,219.167 182.5,219C 179.931,218.102 177.598,216.935 175.5,215.5 Z"/></g>
<g><path style={{opacity:1}} fill="#b68c72" d="M 306.5,220.5 C 305.22,221.931 303.553,222.598 301.5,222.5C 301.5,221.167 301.5,219.833 301.5,218.5C 299.486,218.392 297.82,219.058 296.5,220.5C 296.667,217.137 298.167,216.137 301,217.5C 307.507,214.962 308.007,215.962 302.5,220.5C 303.557,220.906 304.891,220.906 306.5,220.5 Z"/></g>
<g><path style={{opacity:1}} fill="#b18469" d="M 335.5,225.5 C 334.603,224.402 333.77,224.402 333,225.5C 331.956,224.377 331.29,223.044 331,221.5C 329.315,223.017 327.815,224.684 326.5,226.5C 326.24,225.095 325.907,223.762 325.5,222.5C 327.134,221.028 328.634,219.362 330,217.5C 330.617,218.449 330.451,219.282 329.5,220C 330.448,220.483 331.448,220.649 332.5,220.5C 332.974,224.157 334.307,224.324 336.5,221C 337.635,220.251 338.635,220.417 339.5,221.5C 338.133,222.84 336.8,224.173 335.5,225.5 Z"/></g>
<g><path style={{opacity:1}} fill="#f5efeb" d="M 175.5,215.5 C 177.598,216.935 179.931,218.102 182.5,219C 182,219.167 181.5,219.333 181,219.5C 175.286,217.649 169.453,217.149 163.5,218C 173.967,218.325 183.634,221.158 192.5,226.5C 194.237,228.55 196.237,230.383 198.5,232C 198.167,232.167 197.833,232.333 197.5,232.5C 192.941,228.926 187.941,226.259 182.5,224.5C 176.78,220.761 170.447,219.594 163.5,221C 168.423,221.004 171.756,221.837 173.5,223.5C 167.79,223.471 162.123,223.971 156.5,225C 163.867,225.273 171.2,225.773 178.5,226.5C 178.5,227.167 178.167,227.5 177.5,227.5C 169.079,227.687 160.745,228.687 152.5,230.5C 150.452,230.328 148.452,229.995 146.5,229.5C 151.637,225.894 156.97,222.394 162.5,219C 160.433,218.464 158.599,218.964 157,220.5C 156.505,218.527 156.338,216.527 156.5,214.5C 162.857,214.476 169.19,214.81 175.5,215.5 Z"/></g>
<g><path style={{opacity:1}} fill="#cba996" d="M 187.5,220.5 C 189.674,220.75 191.341,221.75 192.5,223.5C 192.953,224.458 193.619,225.292 194.5,226C 193.906,226.464 193.239,226.631 192.5,226.5C 190.287,224.14 187.621,222.306 184.5,221C 185.448,220.517 186.448,220.351 187.5,220.5 Z"/></g>
<g><path style={{opacity:1}} fill="#b58a6f" d="M 335.5,225.5 C 339.737,225.135 342.904,223.135 345,219.5C 345.617,220.449 345.451,221.282 344.5,222C 345.448,222.483 346.448,222.649 347.5,222.5C 347.281,223.675 347.614,224.675 348.5,225.5C 350.332,224.752 351.999,223.752 353.5,222.5C 354.188,224.718 353.188,226.218 350.5,227C 354.98,227.293 355.313,228.126 351.5,229.5C 350.201,228.91 349.368,227.91 349,226.5C 348.333,227.833 347.667,227.833 347,226.5C 346.667,225.5 346.333,224.5 346,223.5C 344.315,225.017 342.815,226.684 341.5,228.5C 340.289,227.726 340.289,226.893 341.5,226C 339.362,226.559 337.362,226.392 335.5,225.5 Z"/></g>
<g><path style={{opacity:1}} fill="#b78a70" d="M 182.5,224.5 C 184.273,225.892 186.273,227.059 188.5,228C 189.696,228.654 189.696,229.154 188.5,229.5C 183.681,226.728 178.681,224.728 173.5,223.5C 171.756,221.837 168.423,221.004 163.5,221C 170.447,219.594 176.78,220.761 182.5,224.5 Z"/></g>
<g><path style={{opacity:1}} fill="#e3d2c8" d="M 205.5,222.5 C 205.5,223.5 205.5,224.5 205.5,225.5C 204.087,228.219 203.42,231.219 203.5,234.5C 202.883,234.611 202.383,234.944 202,235.5C 201.252,230.589 202.418,226.255 205.5,222.5 Z"/></g>
<g><path style={{opacity:1}} fill="#ae7f63" d="M 212.5,222.5 C 211.581,225.089 209.914,227.089 207.5,228.5C 208.419,225.911 210.086,223.911 212.5,222.5 Z"/></g>
<g><path style={{opacity:1}} fill="#c9ab98" d="M 178.5,226.5 C 183.659,227.541 183.659,228.541 178.5,229.5C 175.833,229.5 173.167,229.5 170.5,229.5C 172.833,228.833 175.167,228.167 177.5,227.5C 178.167,227.5 178.5,227.167 178.5,226.5 Z"/></g>
<g><path style={{opacity:1}} fill="#b68b71" d="M 217.5,231.5 C 216.89,230.609 216.557,229.609 216.5,228.5C 220.081,223.077 221.248,223.41 220,229.5C 219.292,230.381 218.458,231.047 217.5,231.5 Z"/></g>
<g><path style={{opacity:1}} fill="#f4ede8" d="M 170.5,229.5 C 173.167,229.5 175.833,229.5 178.5,229.5C 183.207,229.674 187.707,230.674 192,232.5C 192.414,232.043 192.914,231.709 193.5,231.5C 196.232,232.691 196.565,233.691 194.5,234.5C 181.823,233.821 169.156,233.487 156.5,233.5C 156.167,232.833 155.833,232.167 155.5,231.5C 160.452,230.508 165.452,229.842 170.5,229.5 Z"/></g>
<g><path style={{opacity:1}} fill="#975d39" d="M 226.5,211.5 C 225.833,213.167 225.167,214.833 224.5,216.5C 223.094,216.973 222.427,217.973 222.5,219.5C 218.128,223.874 213.461,227.874 208.5,231.5C 214.819,225.177 220.819,218.511 226.5,211.5 Z"/></g>
<g><path style={{opacity:1}} fill="#a77354" d="M 177.5,227.5 C 175.167,228.167 172.833,228.833 170.5,229.5C 165.452,229.842 160.452,230.508 155.5,231.5C 153.5,231.5 151.5,231.5 149.5,231.5C 147.973,231.573 146.973,230.906 146.5,229.5C 148.452,229.995 150.452,230.328 152.5,230.5C 160.745,228.687 169.079,227.687 177.5,227.5 Z"/></g>
<g><path style={{opacity:1}} fill="#9f6846" d="M 205.5,225.5 C 205.343,226.873 205.51,228.207 206,229.5C 206.383,228.944 206.883,228.611 207.5,228.5C 206.551,230.777 205.218,232.777 203.5,234.5C 203.42,231.219 204.087,228.219 205.5,225.5 Z"/></g>
<g><path style={{opacity:1}} fill="#8c4c25" d="M 208.5,231.5 C 208.573,233.027 207.906,234.027 206.5,234.5C 206.427,232.973 207.094,231.973 208.5,231.5 Z"/></g>
<g><path style={{opacity:1}} fill="#f4eeea" d="M 174.5,234.5 C 181.23,234.226 187.897,234.726 194.5,236C 187.53,237.326 180.53,238.492 173.5,239.5C 159.107,236.412 159.44,234.745 174.5,234.5 Z"/></g>
<g><path style={{opacity:1}} fill="#aa7a5c" d="M 252.5,243.5 C 253.356,240.314 255.023,237.647 257.5,235.5C 257.468,238.852 255.801,241.519 252.5,243.5 Z"/></g>
<g><path style={{opacity:1}} fill="#b18468" d="M 245.5,244.5 C 244.627,246.886 243.127,248.886 241,250.5C 240.781,249.062 240.281,247.729 239.5,246.5C 238.833,246.833 238.167,247.167 237.5,247.5C 236.828,246.051 236.161,244.718 235.5,243.5C 235.811,242.522 236.478,241.855 237.5,241.5C 237.554,242.687 237.887,244.02 238.5,245.5C 239.167,245.167 239.833,244.833 240.5,244.5C 243.088,240.324 245.921,236.324 249,232.5C 247.039,236.583 244.872,240.75 242.5,245C 242.667,245.5 242.833,246 243,246.5C 243.708,245.619 244.542,244.953 245.5,244.5 Z"/></g>
<g><path style={{opacity:1}} fill="#a16c4b" d="M 275.5,246.5 C 275.886,244.063 277.053,242.063 279,240.5C 279.667,241.167 279.667,241.833 279,242.5C 278.051,244.093 276.885,245.426 275.5,246.5 Z"/></g>
<g><path style={{opacity:1}} fill="#a06948" d="M 297.5,239.5 C 298.525,239.897 298.692,240.563 298,241.5C 296.333,243.5 294.667,245.5 293,247.5C 293.671,244.504 295.171,241.837 297.5,239.5 Z"/></g>
<g><path style={{opacity:1}} fill="#bd977f" d="M 235.5,243.5 C 235.134,244.695 234.301,245.361 233,245.5C 231.584,244.427 230.25,244.427 229,245.5C 226.993,244.672 224.993,243.672 223,242.5C 221.647,243.685 220.48,245.019 219.5,246.5C 219.331,244.883 218.997,243.216 218.5,241.5C 217.043,244.602 215.043,245.102 212.5,243C 213.618,241.926 214.618,240.76 215.5,239.5C 219.105,241.306 221.605,240.306 223,236.5C 223.492,237.549 223.326,238.549 222.5,239.5C 224.656,241.161 226.99,242.494 229.5,243.5C 230.748,242.96 231.915,242.293 233,241.5C 233.417,242.756 234.25,243.423 235.5,243.5 Z"/></g>
<g><path style={{opacity:1}} fill="#a37152" d="M 249.5,246.5 C 248.791,247.404 247.791,247.737 246.5,247.5C 246.737,246.209 246.404,245.209 245.5,244.5C 245.783,243.711 246.283,243.044 247,242.5C 247.122,244.437 247.955,245.77 249.5,246.5 Z"/></g>
<g><path style={{opacity:1}} fill="#a26f4e" d="M 252.5,243.5 C 252.108,245.179 251.608,246.846 251,248.5C 250.722,247.584 250.222,246.918 249.5,246.5C 250.167,245.167 251.167,244.167 252.5,243.5 Z"/></g>
<g><path style={{opacity:1}} fill="#ac7d5f" d="M 257.5,244.5 C 258.675,244.281 259.675,244.614 260.5,245.5C 259.482,246.852 258.149,247.852 256.5,248.5C 257.376,249.251 258.376,249.751 259.5,250C 257.888,250.72 256.388,250.554 255,249.5C 253.736,251.607 251.903,252.607 249.5,252.5C 249.413,249.402 249.913,249.068 251,251.5C 253.372,249.297 255.539,246.963 257.5,244.5 Z"/></g>
<g><path style={{opacity:1}} fill="#a36e4e" d="M 304.5,243.5 C 305.239,243.369 305.906,243.536 306.5,244C 302.529,250.176 301.863,250.009 304.5,243.5 Z"/></g>
<g><path style={{opacity:1}} fill="#a16c4b" d="M 310.5,251.5 C 311.684,248.139 313.517,245.139 316,242.5C 315.221,246.044 313.387,249.044 310.5,251.5 Z"/></g>
<g><path style={{opacity:1}} fill="#b48a70" d="M 297.5,253.5 C 297.44,254.043 297.107,254.376 296.5,254.5C 295.749,253.624 295.249,252.624 295,251.5C 294.292,252.381 293.458,253.047 292.5,253.5C 294.451,248.332 296.117,248.332 297.5,253.5 Z"/></g>
<g><path style={{opacity:1}} fill="#b3886d" d="M 310.5,251.5 C 310.579,252.93 310.246,254.264 309.5,255.5C 309.97,256.463 310.637,256.463 311.5,255.5C 311.288,257.384 310.288,258.717 308.5,259.5C 307.758,257.892 307.591,256.225 308,254.5C 307.282,255.451 306.449,255.617 305.5,255C 307.196,253.824 308.862,252.657 310.5,251.5 Z"/></g>
<g><path style={{opacity:1}} fill="#af8164" d="M 275.5,246.5 C 275.369,247.239 275.536,247.906 276,248.5C 276.893,247.289 277.726,247.289 278.5,248.5C 277.91,249.799 276.91,250.632 275.5,251C 276.167,251.167 276.833,251.333 277.5,251.5C 281.311,250.093 284.978,248.427 288.5,246.5C 288.833,246.667 289.167,246.833 289.5,247C 286.567,251.051 287.067,251.884 291,249.5C 291.595,250.899 291.428,252.232 290.5,253.5C 290.97,254.463 291.637,254.463 292.5,253.5C 290.27,259.057 289.103,258.723 289,252.5C 287.286,253.925 285.953,253.592 285,251.5C 281.341,251.72 277.508,252.387 273.5,253.5C 273.192,254.308 272.692,254.975 272,255.5C 272.59,252.931 273.257,250.265 274,247.5C 274.383,246.944 274.883,246.611 275.5,246.5 Z"/></g>
<g><path style={{opacity:1}} fill="#9d6745" d="M 297.5,253.5 C 298.688,252.636 299.855,251.636 301,250.5C 301.691,252.891 302.691,252.891 304,250.5C 304.163,252.387 303.329,253.887 301.5,255C 302.5,255.333 303.5,255.667 304.5,256C 302.273,256.121 300.44,256.954 299,258.5C 298.405,257.101 298.572,255.768 299.5,254.5C 299.043,253.702 298.376,253.369 297.5,253.5 Z"/></g>
<g><path style={{opacity:1}} fill="#ac7d60" d="M 317.5,255.5 C 316.791,256.404 315.791,256.737 314.5,256.5C 314.649,255.448 314.483,254.448 314,253.5C 313.292,254.381 312.458,255.047 311.5,255.5C 311.712,253.616 312.712,252.283 314.5,251.5C 315.057,253.332 316.057,254.665 317.5,255.5 Z"/></g>
<g><path style={{opacity:1}} fill="#b99077" d="M 331.5,259.5 C 328.591,265.084 326.925,264.751 326.5,258.5C 324.508,258.672 322.842,258.005 321.5,256.5C 319.781,257.789 318.447,257.455 317.5,255.5C 319.516,252.178 320.183,252.012 319.5,255C 321.047,255.333 322.38,254.833 323.5,253.5C 323.806,257.712 325.306,258.378 328,255.5C 329.841,251.817 332.174,248.484 335,245.5C 335.315,246.908 334.982,248.241 334,249.5C 330.202,252.404 328.702,256.071 329.5,260.5C 330.183,260.137 330.85,259.804 331.5,259.5 Z"/></g>
<g><path style={{opacity:1}} fill="#b18468" d="M 336.5,257.5 C 335.365,259.213 333.698,259.88 331.5,259.5C 332.657,257.862 333.824,256.196 335,254.5C 335.617,255.449 335.451,256.282 334.5,257C 335.094,257.464 335.761,257.631 336.5,257.5 Z"/></g>
<g><path style={{opacity:1}} fill="#b1856a" d="M 336.5,257.5 C 336.811,256.522 337.478,255.855 338.5,255.5C 339.731,256.651 339.731,257.817 338.5,259C 343.607,258.165 343.773,258.998 339,261.5C 338.066,260.142 337.232,258.808 336.5,257.5 Z"/></g>
<g><path style={{opacity:1}} fill="#af8165" d="M 203.5,269.5 C 202.01,271.28 200.01,271.946 197.5,271.5C 197.5,270.5 197.5,269.5 197.5,268.5C 195.362,268.703 193.695,269.703 192.5,271.5C 191.522,271.023 190.689,270.357 190,269.5C 188.211,272.179 187.045,272.013 186.5,269C 186.509,267.596 187.009,266.43 188,265.5C 186.969,270.378 187.969,270.711 191,266.5C 191.999,270.237 193.332,270.237 195,266.5C 195.561,267.022 196.228,267.355 197,267.5C 198.333,266.833 199.667,266.167 201,265.5C 202.257,265.85 202.591,266.517 202,267.5C 197.444,270.407 197.944,271.073 203.5,269.5 Z"/></g>
<g><path style={{opacity:1}} fill="#b2866a" d="M 207.5,261.5 C 208.468,263.607 208.802,265.941 208.5,268.5C 207.207,270.296 205.707,271.963 204,273.5C 204.331,271.981 204.164,270.648 203.5,269.5C 206.389,267.723 207.722,265.056 207.5,261.5 Z"/></g>
<g><path style={{opacity:1}} fill="#fdfdfc" d="M 93.5,392.5 C 174.208,403.554 254.875,414.887 335.5,426.5C 324.409,435.287 321.576,446.287 327,459.5C 328.886,463.44 331.386,466.94 334.5,470C 331.167,470.667 327.833,470.667 324.5,470C 249.146,459.453 173.813,448.786 98.5,438C 82.2102,431.92 76.0435,420.42 80,403.5C 83.2132,398.107 87.7132,394.441 93.5,392.5 Z"/></g>
<g><path style={{opacity:1}} fill="#fbf9f8" d="M 342.5,428.5 C 354.149,426.008 361.149,430.508 363.5,442C 363.336,445.83 362.003,449.163 359.5,452C 349.941,451.313 340.441,450.146 331,448.5C 330.42,439.331 334.253,432.664 342.5,428.5 Z"/></g>
</svg>
